<?xml version="1.0" encoding="UTF-8" standalone="no"?>
<!-- Created with Inkscape (http://www.inkscape.org/) -->

<svg
   width="32"
   height="32"
   viewBox="0 0 8.4666667 8.4666667"
   version="1.1"
   id="svg5"
   inkscape:version="1.2.2 (b0a8486541, 2022-12-01)"
   sodipodi:docname="drawing.svg"
   xml:space="preserve"
   inkscape:export-filename="Tool.svg"
   inkscape:export-xdpi="192"
   inkscape:export-ydpi="192"
   xmlns:inkscape="http://www.inkscape.org/namespaces/inkscape"
   xmlns:sodipodi="http://sodipodi.sourceforge.net/DTD/sodipodi-0.dtd"
   xmlns:xlink="http://www.w3.org/1999/xlink"
   xmlns="http://www.w3.org/2000/svg"
   xmlns:svg="http://www.w3.org/2000/svg"><sodipodi:namedview
     id="namedview7"
     pagecolor="#ffffff"
     bordercolor="#666666"
     borderopacity="1.0"
     inkscape:pageshadow="2"
     inkscape:pageopacity="0.0"
     inkscape:pagecheckerboard="0"
     inkscape:document-units="px"
     showgrid="false"
     units="px"
     inkscape:zoom="5.7082723"
     inkscape:cx="-19.007503"
     inkscape:cy="63.94229"
     inkscape:current-layer="layer5"
     inkscape:showpageshadow="2"
     inkscape:deskcolor="#d1d1d1" /><defs
     id="defs2"><inkscape:perspective
       sodipodi:type="inkscape:persp3d"
       inkscape:vp_x="-18.177473 : 10.023993 : 1"
       inkscape:vp_y="0 : 2298.7789 : 0"
       inkscape:vp_z="22.560321 : 9.9241117 : 1"
       inkscape:persp3d-origin="5.9188367 : 4.6090632 : 1"
       id="perspective1896" /><linearGradient
       inkscape:collect="always"
       id="linearGradient965"><stop
         style="stop-color:#8a8a8a;stop-opacity:1;"
         offset="0"
         id="stop961" /><stop
         style="stop-color:#ffffff;stop-opacity:1;"
         offset="0.25053531"
         id="stop1109" /><stop
         style="stop-color:#676767;stop-opacity:1;"
         offset="1"
         id="stop963" /></linearGradient><linearGradient
       inkscape:collect="always"
       id="linearGradient11622"><stop
         style="stop-color:#00c1ff;stop-opacity:1;"
         offset="0"
         id="stop11618" /><stop
         style="stop-color:#00ffff;stop-opacity:1"
         offset="1"
         id="stop11620" /></linearGradient><linearGradient
       inkscape:collect="always"
       id="linearGradient4545"><stop
         style="stop-color:#d87a00;stop-opacity:1;"
         offset="0"
         id="stop4541" /><stop
         style="stop-color:#ffda00;stop-opacity:1"
         offset="0.4179256"
         id="stop5001" /><stop
         style="stop-color:#ffa400;stop-opacity:1"
         offset="1"
         id="stop4543" /></linearGradient><linearGradient
       inkscape:collect="always"
       xlink:href="#linearGradient4545"
       id="linearGradient4551"
       x1="10.961522"
       y1="19.569967"
       x2="15.061524"
       y2="19.48979"
       gradientUnits="userSpaceOnUse" /><filter
       style="color-interpolation-filters:sRGB;"
       inkscape:label="Drop Shadow"
       id="filter12076"
       x="-0.32000054"
       y="-0.3048784"
       width="1.6927657"
       height="1.6795199"><feFlood
         flood-opacity="0.498039"
         flood-color="rgb(0,0,0)"
         result="flood"
         id="feFlood12066" /><feComposite
         in="flood"
         in2="SourceGraphic"
         operator="in"
         result="composite1"
         id="feComposite12068" /><feGaussianBlur
         in="composite1"
         stdDeviation="0.6"
         result="blur"
         id="feGaussianBlur12070" /><feOffset
         dx="0.3"
         dy="0.3"
         result="offset"
         id="feOffset12072" /><feComposite
         in="SourceGraphic"
         in2="offset"
         operator="over"
         result="composite2"
         id="feComposite12074" /></filter><linearGradient
       inkscape:collect="always"
       xlink:href="#linearGradient11622"
       id="linearGradient12410"
       gradientUnits="userSpaceOnUse"
       x1="-3.0514593"
       y1="2.7323782"
       x2="-1.4653579"
       y2="2.7323782" /><linearGradient
       inkscape:collect="always"
       xlink:href="#linearGradient965"
       id="linearGradient967"
       x1="-0.35996839"
       y1="0.59421319"
       x2="-0.35996839"
       y2="2.1660492"
       gradientUnits="userSpaceOnUse" /></defs><g
     inkscape:label="Layer 1"
     inkscape:groupmode="layer"
     id="layer1"
     style="display:none"><rect
       style="display:inline;fill:url(#linearGradient967);fill-opacity:1;stroke:#000000;stroke-width:0.132292;stroke-linecap:round;stroke-linejoin:bevel;stroke-dasharray:none;stroke-opacity:1"
       id="rect927"
       width="9.0543118"
       height="1.4395444"
       x="-0.29382256"
       y="0.66035903" /><path
       style="fill:none;fill-rule:evenodd;stroke:#ff0000;stroke-width:0.529167;stroke-linecap:butt;stroke-linejoin:miter;stroke-miterlimit:4;stroke-dasharray:none;stroke-opacity:1"
       d="M 0.58631667,8.0697915 H 8.2102024"
       id="path1236" /><path
       style="fill:none;fill-rule:evenodd;stroke:#000000;stroke-width:0.264583px;stroke-linecap:butt;stroke-linejoin:miter;stroke-opacity:1"
       d="M 1.8520833,7.5406248 H 7.2525672"
       id="path1238"
       sodipodi:nodetypes="cc" /><path
       style="fill:none;fill-rule:evenodd;stroke:#000000;stroke-width:0.264583px;stroke-linecap:butt;stroke-linejoin:miter;stroke-opacity:1"
       d="M 1.8520833,7.0114582 H 6.892716"
       id="path1240"
       sodipodi:nodetypes="cc" /><path
       style="fill:none;fill-rule:evenodd;stroke:#000000;stroke-width:0.264583px;stroke-linecap:butt;stroke-linejoin:miter;stroke-opacity:1"
       d="M 1.8520833,6.4822915 H 6.3163895"
       id="path1242"
       sodipodi:nodetypes="cc" /><path
       style="fill:none;fill-rule:evenodd;stroke:#000000;stroke-width:0.264583px;stroke-linecap:butt;stroke-linejoin:miter;stroke-opacity:1"
       d="M 3.6889809,5.9531248 H 6.2783412"
       id="path1244" /><rect
       style="fill:#d1d169;fill-opacity:1;stroke:#9f6e3d;stroke-width:0.264583;stroke-linecap:round;stroke-linejoin:bevel;stroke-opacity:1"
       id="rect1373"
       width="2.3328958"
       height="1.3081784"
       x="2.5172698"
       y="3.6828027" /><path
       sodipodi:type="star"
       style="fill:url(#linearGradient4551);fill-opacity:1;stroke:#cf8800;stroke-width:0.245669;stroke-linecap:round;stroke-linejoin:round;stroke-miterlimit:4;stroke-dasharray:none;stroke-opacity:1"
       id="path1399"
       inkscape:flatsided="false"
       sodipodi:sides="3"
       sodipodi:cx="13.020662"
       sodipodi:cy="19.011007"
       sodipodi:r1="2.2358632"
       sodipodi:r2="1.1179316"
       sodipodi:arg1="1.5707963"
       sodipodi:arg2="2.6179939"
       inkscape:rounded="0"
       inkscape:randomized="0"
       d="m 13.020662,21.246871 -0.968157,-1.676898 -0.968157,-1.676897 1.936314,0 1.936315,0 -0.968158,1.676897 z"
       transform="matrix(0.26458333,0,0,0.26458333,0.24393085,0.37402633)"
       inkscape:transform-center-y="0.14789298" /><rect
       style="fill:#b5b57e;fill-opacity:1;stroke:#604d3d;stroke-width:0.243351;stroke-linecap:round;stroke-linejoin:bevel;stroke-opacity:1"
       id="rect1503"
       width="1.587323"
       height="3.2020471"
       x="2.8993146"
       y="0.12350227" /><path
       style="fill:none;fill-rule:evenodd;stroke:#ffffff;stroke-width:0.265;stroke-linecap:butt;stroke-linejoin:miter;stroke-dasharray:none;stroke-opacity:1"
       d="M 1.8520833,7.2760415 H 7.2525672"
       id="path367"
       sodipodi:nodetypes="cc" /><path
       style="fill:none;fill-rule:evenodd;stroke:#ffffff;stroke-width:0.265;stroke-linecap:butt;stroke-linejoin:miter;stroke-dasharray:none;stroke-opacity:1"
       d="M 1.8520833,6.7468749 H 6.892716"
       id="path369"
       sodipodi:nodetypes="cc" /><path
       style="fill:none;fill-rule:evenodd;stroke:#ffffff;stroke-width:0.265;stroke-linecap:butt;stroke-linejoin:miter;stroke-dasharray:none;stroke-opacity:1"
       d="M 1.8520833,6.2177082 H 6.3163895"
       id="path371"
       sodipodi:nodetypes="cc" /></g><g
     inkscape:groupmode="layer"
     id="layer3"
     inkscape:label="BuildVolume"
     style="display:none"><g
       sodipodi:type="inkscape:box3d"
       id="g1898"
       style="display:inline;fill:#dea1a1;stroke:#000000;stroke-width:0.5;stroke-linecap:round;stroke-linejoin:round;stroke-dasharray:none;stroke-opacity:1"
       inkscape:perspectiveID="#perspective1896"
       inkscape:corner0="0.28722969 : 0.00066083795 : 0 : 1"
       inkscape:corner7="0.048893783 : -0.0018994157 : 0.22326725 : 1"
       sodipodi:insensitive="true"><path
         sodipodi:type="inkscape:box3dside"
         id="path1910"
         style="fill:#d9cbcb;fill-opacity:1;fill-rule:evenodd;stroke:#000000;stroke-width:0.132292;stroke-linecap:butt;stroke-linejoin:round;stroke-dasharray:none;stroke-opacity:1"
         inkscape:box3dsidetype="11"
         d="m 3.7965701,1.0365947 4.1167772,0.485964 v 4.626346 L 3.7965701,4.9329661 Z"
         points="7.9133473,1.5225587 7.9133473,6.1489047 3.7965701,4.9329661 3.7965701,1.0365947 " /><path
         sodipodi:type="inkscape:box3dside"
         id="path1900"
         style="fill:#8f8080;fill-opacity:1;fill-rule:evenodd;stroke:#000000;stroke-width:0.132292;stroke-linecap:butt;stroke-linejoin:round;stroke-dasharray:none;stroke-opacity:1"
         inkscape:box3dsidetype="6"
         d="M 0.5420375,1.4691805 V 6.0413693 L 3.7965701,4.9329661 V 1.0365947 Z"
         points="0.5420375,6.0413693 3.7965701,4.9329661 3.7965701,1.0365947 0.5420375,1.4691805 " /><path
         sodipodi:type="inkscape:box3dside"
         id="path1908"
         style="fill:#800080;fill-opacity:1;fill-rule:evenodd;stroke:none;stroke-width:1px;stroke-linecap:butt;stroke-linejoin:round;stroke-opacity:1"
         inkscape:box3dsidetype="13"
         d="M 0.5420375,6.0413693 4.7955964,7.7679902 7.9133473,6.1489047 3.7965701,4.9329661 Z"
         points="4.7955964,7.7679902 7.9133473,6.1489047 3.7965701,4.9329661 0.5420375,6.0413693 " /><path
         sodipodi:type="inkscape:box3dside"
         id="path1902"
         style="fill:none;fill-rule:evenodd;stroke:#000000;stroke-width:0.198437;stroke-linecap:butt;stroke-linejoin:round;stroke-dasharray:none;stroke-opacity:1"
         inkscape:box3dsidetype="5"
         d="M 0.5420375,1.4691805 4.7955964,2.1568815 7.9133473,1.5225587 3.7965701,1.0365947 Z"
         points="4.7955964,2.1568815 7.9133473,1.5225587 3.7965701,1.0365947 0.5420375,1.4691805 " /><path
         sodipodi:type="inkscape:box3dside"
         id="path1906"
         style="fill:none;fill-rule:evenodd;stroke:#000000;stroke-width:0.264583;stroke-linecap:butt;stroke-linejoin:round;stroke-dasharray:none;stroke-opacity:1"
         inkscape:box3dsidetype="14"
         d="M 4.7955964,2.1568815 V 7.7679902 L 7.9133473,6.1489047 v -4.626346 z"
         points="4.7955964,7.7679902 7.9133473,6.1489047 7.9133473,1.5225587 4.7955964,2.1568815 " /><path
         sodipodi:type="inkscape:box3dside"
         id="path1904"
         style="fill:none;fill-opacity:0.542636;fill-rule:evenodd;stroke:#000000;stroke-width:0.264583;stroke-linecap:butt;stroke-linejoin:round;stroke-dasharray:none;stroke-opacity:1"
         inkscape:box3dsidetype="3"
         d="m 0.5420375,1.4691805 4.2535589,0.687701 V 7.7679902 L 0.5420375,6.0413693 Z"
         points="4.7955964,2.1568815 4.7955964,7.7679902 0.5420375,6.0413693 0.5420375,1.4691805 " /></g><path
       id="path7383"
       style="fill:none;fill-rule:evenodd;stroke:#000000;stroke-width:0.0529167;stroke-linejoin:round;stroke-dasharray:none;stroke-opacity:1"
       inkscape:label="path7326"
       d="M 6.659134,5.7348784 3.5154088,7.1926489 M 4.5484836,5.1099927 1.5316924,6.3083062 M 1.54636,5.6645336 5.9830012,7.3006898 M 3.2578533,5.0763968 7.3765538,6.4438048 M 2.4590743,6.7930076 5.5373128,5.3969951 M 6.6837068,6.8624206 2.4253356,5.3616799"
       sodipodi:nodetypes="cccccccccccc" /></g><g
     inkscape:groupmode="layer"
     id="layer4"
     inkscape:label="Settings"
     style="display:none"><g
       id="g11806"><path
         id="path11890"
         style="display:inline;fill:#f3f3f3;stroke:none;stroke-width:0.0113546;stroke-opacity:1"
         d="m 4.6575969,7.4646607 -0.495577,0.00672 -0.4950603,0.0062 -0.062528,0.00517 -0.062528,0.00465 -0.153479,0.00672 -0.1529623,0.00672 -0.2330607,0.017053 -0.2325439,0.016536 -0.1684652,0.017053 -0.1679484,0.01757 -0.1498616,0.027389 -0.1503785,0.027905 -0.050126,0.01757 -0.050126,0.018087 -0.020671,0.018604 -0.00879,0.00827 -0.011369,0.00982 v 0.014986 0.014986 l 0.028422,0.018603 0.027905,0.018604 0.081649,0.021704 0.082166,0.021187 0.097152,0.017053 0.097152,0.016536 0.2098063,0.022738 0.2103231,0.022738 0.3064412,0.018087 0.3064412,0.018604 0.2950725,0.00827 0.078548,0.00258 0.00103,0.00103 0.03359,-5.167e-4 0.1824178,0.00568 0.3576009,0.00155 0.3576009,0.00155 L 5.1542005,7.931815 5.5629611,7.920446 5.7391777,7.909077 5.9148776,7.897708 6.1252006,7.879621 6.335007,7.862051 6.488486,7.83983 6.6414482,7.817609 l 0.094051,-0.022221 0.094051,-0.022221 0.031523,-0.016536 0.032039,-0.016536 0.00827,-0.00982 0.00723,-0.00362 V 7.722005 L 6.9220581,7.7054728 6.8920858,7.6780843 6.8621135,7.6501791 6.7747803,7.6269247 6.6869304,7.604187 6.5396525,7.5809326 6.3918579,7.5576783 6.1422608,7.5349406 5.8921468,7.512203 5.6880249,7.5008342 5.4833863,7.4894654 5.0704916,7.477063 Z"
         sodipodi:nodetypes="ccccccccccccccccccccccccccccccccccccccccccccccccccccccccccccccccc" /><path
         id="path11884"
         style="display:inline;fill:#333c33;fill-opacity:1;stroke:none;stroke-width:0.0113546;stroke-opacity:1"
         d="m 4.7630168,0.5157308 -0.3441651,0.003617 -0.3431315,0.003617 h -5.167e-4 -5.168e-4 -0.010335 l -0.064079,0.0315226 -0.064079,0.0315226 -0.0093,0.0103353 -0.00362,0.00155 -0.025322,0.0294556 -0.00207,0.002067 -0.026872,0.0232544 -0.00723,0.0134359 -0.021187,0.0232544 -0.022738,0.0511597 -0.011885,0.0268717 -0.00827,0.0170532 -5.167e-4,0.002584 -0.00207,0.005168 -0.037724,0.2728516 -0.036174,0.2614827 -0.00207,0.011369 -0.00878,0.00775 -0.00982,0.00827 -0.081132,0.029972 -0.032039,0.010335 -0.0062,0.00258 -0.027905,0.00879 -0.045992,0.019637 -0.068213,0.025322 -0.022738,0.00827 -0.05426,0.026355 -0.024805,0.010335 -0.029972,0.015503 -0.013953,0.0062 -0.038241,0.020671 -0.074414,0.03669 -0.013953,-0.00568 -0.013953,-0.00517 -0.2087727,-0.164331 -0.2082561,-0.1638143 -0.00207,-0.00103 -0.00827,-0.00672 -0.00362,-0.00155 -0.00568,-0.00413 -0.031523,-0.012402 -0.039791,-0.020154 -0.018603,-0.00362 -0.00413,-0.00207 -0.0062,-5.168e-4 -0.00672,-0.00258 -0.019637,-0.00775 h -0.027389 l -0.046509,-0.00982 -0.049609,0.00879 h -0.037207 l -0.00258,0.00103 -0.00465,0.00207 -0.01912,0.00879 -0.011885,0.00207 -0.039791,0.020671 -0.046509,0.017053 -0.00775,0.00775 -0.00672,0.0031 -0.00723,0.00723 -0.00103,5.167e-4 v 5.168e-4 l -0.252181,0.2526978 -0.2516642,0.2537312 -0.00103,0.00258 -0.00878,0.00879 -0.013436,0.03669 -0.00155,0.00413 -0.010335,0.024805 -0.026355,0.057361 v 0.083199 0.082682 l 0.010335,0.020154 5.168e-4,0.00879 0.020154,0.039791 0.00982,0.01912 0.00517,0.012919 0.00103,0.00362 0.021704,0.027388 0.00827,0.01602 0.1488281,0.1958537 0.1488282,0.1963704 0.014469,0.023771 0.00982,0.01602 0.00207,0.0062 -0.018087,0.038241 -5.168e-4,0.00155 -0.012919,0.023254 -0.034623,0.061495 -0.040308,0.096118 -0.014469,0.034107 -0.013436,0.028422 -0.00723,0.021187 -0.00568,0.012919 -0.037207,0.1023193 -0.037724,0.1023193 -0.034107,0.0031 -0.03359,0.0031 -0.2769857,0.034106 -0.2769857,0.03359 -0.043408,0.023254 -0.025322,0.010852 -0.00672,0.00517 -0.0062,0.0031 -0.00672,0.00568 -0.024288,0.013436 -0.026872,0.030489 -0.023254,0.01912 -5.167e-4,0.00103 -0.00258,0.00207 -0.00103,0.00207 -0.00672,0.00568 -0.00982,0.019637 -0.017053,0.01912 -0.019637,0.053743 -0.020671,0.040824 v 0.010852 0.00362 l -0.00568,0.014469 v 0.3715536 0.2299601 l -0.00103,0.1260905 0.00103,0.00362 v 0.011886 l 0.00568,0.020154 v 0.013953 l 0.00879,0.018087 0.00775,0.027905 0.00827,0.012919 0.00362,0.012919 0.018087,0.022221 5.168e-4,5.167e-4 0.00568,0.011886 0.0062,0.0062 5.167e-4,5.167e-4 0.024288,0.038757 0.01912,0.013953 0.012919,0.016536 0.020671,0.010335 5.168e-4,5.168e-4 0.00413,0.00465 0.016536,0.00827 h 5.168e-4 l 0.034623,0.025838 0.045475,0.014986 0.011369,0.00568 0.00258,0.00155 0.0093,0.00103 0.00362,0.00103 0.029972,0.00982 0.2160074,0.023254 0.2154908,0.023254 0.045475,0.00465 0.045475,0.00517 0.024288,5.168e-4 h 0.00207 l 0.024288,0.00568 0.014986,0.043925 0.00878,0.027388 0.025838,0.076998 0.00413,0.00982 0.029972,0.08785 0.044958,0.091467 0.018604,0.044442 0.00879,0.017053 0.00465,0.010335 0.010335,0.018087 0.014986,0.028422 0.00672,0.012919 0.029456,0.059945 -0.1844848,0.2413289 -0.1844849,0.2413289 -0.016536,0.047026 -0.010852,0.019637 -5.168e-4,0.011886 -0.00878,0.01912 5.167e-4,0.00723 v 5.168e-4 l -0.0031,0.00775 v 0.075448 l 5.168e-4,0.075448 0.020671,0.041858 0.01602,0.034623 0.026872,0.056844 0.00413,0.00413 0.00465,0.0093 0.2485636,0.2444295 0.2485637,0.2444295 0.066663,0.032556 0.00258,0.00155 0.064079,0.031006 h 0.030489 5.167e-4 l 0.024288,0.00258 0.058911,0.00568 0.00517,-0.00103 0.020154,0.00155 0.028422,-0.00878 h 0.036173 l 0.053744,-0.024805 0.017053,-0.00775 0.020154,-0.0062 0.00879,-0.00723 0.00723,-0.0031 0.1395264,-0.1105875 0.1395263,-0.1105876 0.081649,-0.066146 0.05271,-0.043408 0.029456,-0.023254 h 0.011369 0.0093 l 0.010335,0.00517 0.00982,0.00568 0.048576,0.022221 0.027905,0.013953 0.093534,0.047026 0.042375,0.01602 0.025838,0.012402 0.055294,0.018604 0.00413,0.00155 0.1276407,0.048576 0.022738,0.00517 0.022738,0.00827 h 0.00827 l 0.01757,0.0062 0.00827,0.020154 0.00672,0.018087 0.020671,0.1529622 0.00827,0.069246 0.020671,0.1545126 0.020154,0.1550293 0.022221,0.043925 0.0031,0.011369 0.00827,0.011369 0.019637,0.039791 0.027905,0.025322 0.011369,0.01602 0.013436,0.010335 0.013953,0.01602 0.018604,0.010852 0.010335,0.0093 0.013436,0.00672 0.00982,0.00775 0.018604,0.00723 0.00568,0.00258 0.00207,0.00103 0.015503,0.0093 h 5.168e-4 l 0.00775,0.00465 0.0062,0.00155 0.015503,0.00775 0.031006,0.0062 0.00672,0.00258 h 0.00672 l 0.00258,5.167e-4 0.047025,0.0093 0.3193604,0.00103 0.3193603,0.00155 0.034107,-0.00672 h 0.020154 l 0.013436,-0.00465 h 0.011369 l 0.011369,-0.00568 h 0.0093 l 0.0062,-0.0031 0.01602,-0.0031 0.061495,-0.03669 0.029456,-0.01757 5.168e-4,-5.168e-4 0.031006,-0.018604 0.0093,-0.012402 0.011886,-0.00775 0.017053,-0.028939 0.00775,-0.00775 0.00568,-0.012919 0.00103,-0.00103 0.023254,-0.031523 0.010852,-0.032039 0.00103,-0.00207 0.00258,-0.00827 0.00258,-0.00879 0.00465,-0.013436 0.00155,-0.00362 5.168e-4,-0.0031 v -5.168e-4 l 0.00362,-0.00775 5.168e-4,-0.00465 0.0062,-0.018087 0.032556,-0.2640665 0.032556,-0.2640666 0.00465,-0.0031 0.00465,-0.0031 0.00155,-5.167e-4 0.1291911,-0.042891 0.1302246,-0.043408 0.028939,-0.013953 0.00517,-0.00155 0.083716,-0.040308 0.041341,-0.018087 0.041858,-0.021187 0.058394,-0.027388 h 0.00982 0.00155 l 0.021187,0.014986 0.025838,0.018087 0.050126,0.038757 0.025838,0.020154 0.049093,0.039791 0.1452108,0.1111043 0.127124,0.099735 0.012402,0.00672 0.00568,0.00413 0.00103,5.167e-4 0.00362,0.00155 0.00362,0.00155 0.013436,0.0062 0.00207,0.00103 0.014986,0.00827 0.056844,0.030489 h 0.011369 0.030489 l 0.037724,0.0031 0.069763,0.00568 0.029972,-0.00878 h 0.025321 0.011369 l 0.056844,-0.025838 0.00775,-0.00362 0.00362,-0.00103 0.00258,-0.00207 0.042375,-0.019637 0.2511474,-0.2511474 0.2511475,-0.2480469 5.168e-4,-0.00155 0.00362,-0.00672 0.01912,-0.01912 0.022738,-0.064079 0.00103,-0.00207 0.018604,-0.036173 5.167e-4,-0.01602 0.00517,-0.013436 v -0.087333 -0.0031 l 0.00258,-0.054777 -5.168e-4,-0.00155 5.168e-4,-0.00878 -0.0031,-0.00672 v -0.012919 l -0.00517,-0.011369 -0.00103,-0.00207 -0.014986,-0.032039 -0.00568,-0.011886 -0.00723,-0.021704 -0.0062,-0.00775 -0.00155,-0.00362 -0.011886,-0.014986 -0.00207,-0.00258 L 7.1354818,5.6032756 6.9825196,5.4053548 6.8150879,5.1898641 6.8042359,5.166093 l -0.0093,-0.01912 v -0.00517 l 0.038241,-0.080098 0.00827,-0.017053 0.010852,-0.020671 0.00878,-0.018087 0.035657,-0.06873 0.0031,-0.00775 0.011885,-0.023771 0.01757,-0.044958 0.010852,-0.023254 0.021187,-0.059945 0.049093,-0.1281576 v -0.014469 -5.167e-4 l 0.00465,-0.013953 0.1369426,-0.014986 0.023254,-0.00207 0.039274,-0.00465 0.094051,-0.010335 0.2981731,-0.032556 0.010852,-0.00465 h 0.00207 l 0.0031,-0.00155 0.02067,-0.0093 0.00103,-5.168e-4 0.023771,-0.00517 0.023771,-0.015503 0.00155,-0.00103 0.030489,-0.012919 0.00103,-0.00103 0.00672,-0.00258 0.021704,-0.023254 0.012402,-0.00827 0.01912,-0.025321 0.03514,-0.038241 0.018087,-0.018603 0.013953,-0.037724 0.0031,-0.0062 0.023771,-0.05116 v -0.011369 -0.00258 l 0.00672,-0.01757 v -0.015503 l 5.168e-4,-0.00207 -0.00362,-0.3700032 v -0.0031 l -0.00362,-0.3725871 v -0.011369 l -0.027905,-0.056844 -0.027905,-0.056844 -0.049609,-0.049093 -0.049093,-0.049093 -0.042891,-0.01912 -0.018603,-0.011885 -0.011886,-0.00207 -0.022738,-0.00982 -0.2733684,-0.034623 -0.2733683,-0.034107 -0.031006,-5.167e-4 -0.036174,-0.00413 -0.040824,-0.1147217 -0.00103,-0.0031 -0.042375,-0.118339 -0.00155,-0.00362 -0.037207,-0.078548 -0.00103,-0.00155 -0.014986,-0.037207 -0.040308,-0.080099 -0.00103,-0.00207 -0.039274,-0.083199 v -0.0062 -0.00103 -0.00155 -0.00258 l 0.026355,-0.037724 0.029972,-0.042891 0.153479,-0.1984375 0.1090373,-0.1415935 0.018604,-0.023771 0.00103,-0.00207 0.024288,-0.031523 0.00827,-0.024288 0.0031,-0.00465 0.00362,-0.013953 0.013953,-0.025322 v -0.017053 l 0.00982,-0.028422 -0.00103,-0.068213 -5.168e-4,-0.067696 5.168e-4,-0.00723 -0.00878,-0.01757 v -0.0093 L 7.165465,1.8185112 7.143761,1.7606332 7.122574,1.7394462 l -5.168e-4,-0.00155 -0.0031,-0.00258 -5.167e-4,-0.00103 -0.00413,-0.00775 L 6.8657308,1.480013 6.8414429,1.4557251 6.6300863,1.2428182 l -0.0062,-0.0031 -0.00672,-0.00672 -0.00207,-0.00103 -0.00775,-0.00775 -0.03669,-0.013436 -0.00207,-0.00103 -0.046509,-0.023254 -0.00878,-0.00155 -0.026872,-0.013436 h -0.042891 l -0.039274,-0.00723 -0.00672,0.00103 -0.021704,0.00413 -0.011885,0.00207 h -0.051676 l -0.032039,0.014986 -0.00207,5.168e-4 -0.010852,0.00568 -0.01757,0.00827 -0.024805,0.011369 -0.00362,0.00155 -0.00103,5.168e-4 -0.033073,0.015503 -0.016536,0.012919 -0.00103,5.168e-4 -0.0031,0.00155 -0.015503,0.013436 -0.1793173,0.1390096 -0.2160074,0.1669149 -0.012919,0.00517 -0.00878,0.00362 h -0.0031 l -0.07028,-0.033073 -0.00517,-0.00258 -0.00103,-5.168e-4 L 5.6182696,1.5187833 5.5061318,1.4629723 5.4611728,1.4464363 5.4492868,1.4407563 5.330431,1.3973483 5.273587,1.3766773 5.211059,1.3534233 5.209509,1.3523933 5.198657,1.3389573 5.190907,1.3296573 5.153183,1.0609399 5.124244,0.85216707 l -5.167e-4,-0.001034 -0.00879,-0.0661458 -0.01757,-0.0361735 -0.00362,-0.007751 -0.00413,-0.0160197 -0.00672,-0.008785 -0.010335,-0.0242879 -0.00775,-0.008268 -0.00775,-0.0165365 -0.010335,-0.009302 -0.00103,-0.002584 -0.022738,-0.019637 -0.00103,-0.00155 -0.0031,-0.003101 -0.012919,-0.0170532 -0.00517,-0.003101 -0.00465,-0.005168 -0.01912,-0.0124023 -0.023254,-0.0211873 -0.040824,-0.0191203 h -5.167e-4 l -0.011886,-0.005684 -0.05271,-0.0242879 h -0.011369 -0.026355 l -0.023254,-0.006718 h -0.020154 z m -0.1839681,2.3471436 0.00723,5.167e-4 0.050126,0.00879 0.055294,0.00982 0.00258,5.168e-4 0.073897,0.019637 0.073897,0.030489 0.063045,0.025322 0.018603,0.0093 0.07028,0.041858 0.012919,0.00775 0.042891,0.026355 0.019637,0.014986 0.029456,0.022738 0.061495,0.059428 0.056327,0.05426 0.035657,0.044958 0.026355,0.033073 0.022738,0.035657 0.040824,0.063045 0.027388,0.055811 0.01912,0.038241 0.027905,0.062012 0.012402,0.041341 0.017053,0.06873 0.023771,0.096635 v 0.1384929 l -5.168e-4,0.1312581 -0.018604,0.081132 -0.019637,0.087333 -0.027389,0.07028 -0.00827,0.021704 -0.025321,0.05116 -0.016536,0.03359 -0.031006,0.050126 -0.040824,0.066146 -0.021187,0.025838 -0.013436,0.017053 -0.056844,0.058911 -0.046509,0.048059 -0.013953,0.012402 -0.045992,0.039791 -0.05271,0.035657 -0.013436,0.0093 -0.011886,0.00775 -0.040308,0.026355 -0.015503,0.0093 -0.040824,0.01912 -0.056844,0.024288 -0.091467,0.039791 -0.019637,0.00517 -0.0031,5.167e-4 -0.067696,0.013953 -0.084233,0.01757 -0.079065,0.00517 -0.0093,0.00103 h -0.0031 l -0.00982,5.168e-4 -0.020154,0.00103 -0.044958,0.00207 h -0.00103 l -0.070797,-0.00827 -0.059945,-0.00723 -0.027905,-0.00413 -0.062528,-0.016536 -0.050643,-0.013436 -0.021187,-0.00775 -0.031523,-0.011886 -0.054777,-0.024805 -0.010852,-0.00517 -0.05271,-0.024288 -0.029456,-0.014986 -0.062528,-0.041858 -0.043408,-0.028939 -0.031523,-0.022221 -0.060978,-0.059428 -0.00827,-0.00775 -0.034106,-0.03669 -0.041341,-0.043925 -0.032556,-0.044958 -0.042375,-0.058911 -5.168e-4,-5.167e-4 -0.013436,-0.022738 -0.038241,-0.076998 -0.031006,-0.062012 -0.016536,-0.048059 -0.012919,-0.03669 -0.010335,-0.039274 -0.014469,-0.054777 -0.0062,-0.041858 -0.00517,-0.03514 5.167e-4,-0.1178223 5.168e-4,-0.1214396 0.00413,-0.026355 0.00362,-0.023254 0.00258,-0.012402 0.00413,-0.022738 0.00982,-0.035657 0.00982,-0.035657 0.00568,-0.01757 0.015503,-0.047542 0.00413,-0.010852 0.033073,-0.069763 0.027905,-0.059428 0.011369,-0.022738 0.00207,-0.00362 0.00155,-0.00207 0.028939,-0.042891 0.040824,-0.053744 0.048576,-0.063562 0.044442,-0.044442 0.022221,-0.022221 0.014469,-0.012402 0.060461,-0.051676 0.05116,-0.034623 0.044958,-0.031006 0.00258,-0.00155 0.00362,-0.00207 0.0031,-0.00155 0.00258,-0.00155 0.064595,-0.032556 0.031006,-0.015503 0.019637,-0.00775 0.042891,-0.01757 0.013436,-0.00465 0.00207,-0.00103 0.018604,-0.0062 0.042891,-0.012919 0.032556,-0.00982 0.027388,-0.00775 0.00207,-5.168e-4 0.011886,-0.00155 0.054777,-0.00775 0.021187,-0.0031 0.1204061,-5.168e-4 z" /><path
         style="display:inline;fill:#9db19d;fill-opacity:1;stroke:none;stroke-width:0.0113546;stroke-opacity:1"
         d="m 4.7903226,6.9491114 0.036975,-0.017546 0.012724,-0.025034 0.012724,-0.025034 0.029413,-0.2270917 0.029413,-0.2270917 0.013536,-0.1048107 0.013536,-0.1048106 0.022613,-0.021444 0.022613,-0.021444 0.1021913,-0.024987 0.1021913,-0.024987 0.1299713,-0.050796 0.1299713,-0.050797 0.1425387,-0.073334 0.1425388,-0.073334 0.021445,2.27e-5 0.021445,2.27e-5 0.075069,0.060287 0.075069,0.060287 0.1021913,0.079933 0.1021912,0.079933 0.1056414,0.080426 0.1056412,0.080426 0.031302,0.00687 0.031301,0.00687 0.024017,-0.00895 0.024017,-0.00895 L 6.6756272,6.0938933 6.898652,5.8740394 6.909869,5.8445354 6.921086,5.8150314 6.914066,5.7862014 6.907046,5.7573714 6.875501,5.7176304 6.843956,5.6778894 6.6648186,5.4451204 6.4856813,5.2123514 l -0.010244,-0.02688 -0.010244,-0.02688 0.049882,-0.086666 0.049882,-0.086666 0.052151,-0.1040394 0.052151,-0.1040394 0.044182,-0.1287296 0.044182,-0.1287296 0.013881,-0.058673 0.013881,-0.058673 0.019696,-0.017824 0.019696,-0.017824 0.283132,-0.028594 0.2831321,-0.028594 0.072074,-0.010713 0.072074,-0.010713 0.027785,-0.018205 0.027785,-0.018206 0.010848,-0.028532 0.010848,-0.028532 V 3.896195 3.5977321 L 7.5998726,3.5616289 7.5872871,3.5255258 7.5526835,3.5076316 7.51808,3.4897375 7.3296615,3.4679217 7.141243,3.446106 6.9822788,3.4290517 6.8233146,3.4119973 6.8036603,3.392364 6.7840061,3.3727306 6.7504897,3.2536066 6.7169731,3.1344843 6.6646648,3.0039065 6.6123565,2.8733288 6.5446781,2.7519854 6.4769997,2.6306419 V 2.608024 2.5854063 l 0.177611,-0.2364174 0.1776111,-0.2364173 0.03806,-0.046507 0.03806,-0.046507 0.00685,-0.034241 0.00685,-0.034241 -0.017263,-0.032798 -0.017263,-0.032798 -0.2137724,-0.2119783 -0.2137726,-0.2119782 -0.041384,-0.00764 -0.041384,-0.00764 -0.026743,0.01424 -0.026743,0.01424 -0.2157371,0.1649353 -0.2157372,0.1649353 -0.054954,0.043278 -0.054954,0.043279 h -0.02872 -0.02872 l -0.06394,-0.0385 L 5.5970193,1.8141453 5.4919563,1.761684 5.3868935,1.7092227 5.3004705,1.6748919 5.2140477,1.6405611 5.0935068,1.6067137 4.9729659,1.5728665 4.9580531,1.5579537 4.9431404,1.543041 l -0.03911,-0.282964 -0.03911,-0.28296404 -0.0075,-0.0556466 -0.0075,-0.0556466 -0.031427,-0.0351901 -0.031427,-0.0351901 -0.3251863,-0.00334 -0.3251863,-0.00334 -0.036971,0.0374039 -0.036971,0.0374041 -0.042992,0.31792844 -0.042992,0.3179284 -0.015528,0.036472 -0.015527,0.036472 -0.065678,0.018094 -0.065678,0.018094 -0.1192232,0.039952 -0.1192231,0.039952 -0.1076837,0.05079 -0.1076839,0.05079 -0.087654,0.050559 -0.087654,0.050559 -0.031754,-3.997e-4 -0.031754,-3.996e-4 -0.271926,-0.2152461 -0.2719261,-0.215246 -0.036499,-0.00685 -0.036499,-0.00685 -0.026535,0.00807 -0.026535,0.00807 -0.2137726,0.2115848 -0.2137724,0.2115849 -0.017263,0.032798 -0.017263,0.032798 0.00641,0.032045 0.00641,0.032045 0.1648008,0.2158612 0.1648008,0.2158613 0.051309,0.069699 0.05131,0.069699 v 0.024474 0.024474 l -0.028483,0.05092 -0.028483,0.05092 -0.051997,0.101113 -0.051997,0.101113 -0.044731,0.1146241 -0.044731,0.1146241 -0.027893,0.1021913 -0.027893,0.1021913 -0.023381,0.019248 -0.023381,0.019248 -0.047768,0.00592 -0.047768,0.00592 L 1.8216289,3.440908 1.6569874,3.458552 1.517731,3.47504 1.3784745,3.491528 1.3560455,3.503532 1.3336165,3.515536 1.3164675,3.548699 1.2993185,3.581862 v 0.306399 0.3063985 l 0.011072,0.02912 0.011072,0.02912 0.034486,0.020972 0.034486,0.020972 0.2468229,0.025063 0.2468231,0.025063 0.1015472,0.010415 0.1015472,0.010415 0.020711,0.020711 0.020711,0.020711 0.028056,0.104838 0.028056,0.1048379 0.040096,0.096862 0.040096,0.096862 0.052184,0.1043626 0.052184,0.1043625 0.040413,0.065885 0.040413,0.065885 -0.010498,0.028107 -0.010498,0.028106 -0.1305777,0.1718408 -0.1305778,0.1718407 -0.077917,0.097514 -0.077917,0.097514 -0.01055,0.02752 -0.01055,0.02752 0.00745,0.03493 0.00745,0.03493 0.2286254,0.2239595 0.2286255,0.2239597 0.036409,0.00714 0.036409,0.00714 0.040272,-0.021042 0.040273,-0.021041 L 2.8780029,6.083834 3.1394826,5.8766128 h 0.020877 0.020878 l 0.1519181,0.078855 0.1519181,0.078855 0.1078686,0.041844 0.1078685,0.041844 0.073805,0.020558 0.073805,0.020558 0.048064,0.012415 0.048064,0.012416 0.010395,0.019485 0.010395,0.019485 0.034917,0.2384463 0.034917,0.2384463 0.012577,0.096463 0.012577,0.096463 0.01327,0.016085 0.01327,0.016085 0.034064,0.020827 0.034064,0.020827 0.2991805,4.54e-5 0.2991805,4.54e-5 0.036975,-0.017546 z M 4.3139511,5.1481139 4.2231144,5.1379202 4.1152458,5.1095882 4.0073773,5.081256 3.8824768,5.0196361 3.7575764,4.9580163 3.6824291,4.9008991 3.6072818,4.8437819 3.5105537,4.7421371 3.4138255,4.6404923 3.3599248,4.5540121 3.3060241,4.4675321 3.2626073,4.3668258 3.2191904,4.2661195 3.1963949,4.1768385 3.1735995,4.0875576 3.1612438,3.980045 3.1488882,3.8725324 l 0.00694,-0.068127 0.00694,-0.068128 0.016798,-0.093958 0.016798,-0.093958 0.034932,-0.09907 0.034932,-0.09907 0.026436,-0.052247 0.026436,-0.052248 0.053384,-0.07833 0.053384,-0.07833 0.057986,-0.067383 0.057987,-0.067384 0.1115617,-0.088958 0.1115615,-0.088958 0.1155302,-0.055929 0.1155301,-0.055929 0.069866,-0.023087 0.069866,-0.023087 0.099102,-0.017282 0.099101,-0.017282 h 0.1219258 0.1219258 l 0.1002242,0.017478 0.1002242,0.017478 0.085775,0.029173 0.085775,0.029173 0.1078686,0.056125 0.1078685,0.056125 0.098666,0.078435 0.098666,0.078435 0.078226,0.091861 0.078226,0.091861 0.04607,0.076914 0.046069,0.076915 0.036342,0.082802 0.036342,0.082802 0.029479,0.1093929 0.029479,0.1093929 -2.033e-4,0.2043826 -2.032e-4,0.2043825 -0.029688,0.1110178 -0.029688,0.1110177 -0.050862,0.1073714 -0.050862,0.1073713 -0.06042,0.087425 -0.06042,0.087425 -0.087716,0.087144 -0.087716,0.087144 -0.085629,0.059195 -0.085628,0.059195 -0.1054993,0.049975 -0.1054992,0.049976 -0.1072126,0.028516 -0.1072126,0.028516 -0.1078685,0.01134 -0.1078686,0.01134 -0.034064,-0.00129 -0.034064,-0.00129 -0.090837,-0.010194 z"
         id="path11848"
         sodipodi:nodetypes="cccccccccccccccccccccccccccccccccccccccccccccccccccccccccccccccccccccccccccccccccccccccccccccccccccccccccccccccccccccccccccccccccccccccccccccccccccccccccccccccccccccccccccccccccccccccccccccccccccccccccccccccccccccccccccccccccccccccccccccccccccccccccccccccccccccccccccccccccccccccccccccccccccccccccccccccccccccc" /><path
         id="path11876"
         style="display:inline;fill:#aec1ae;fill-opacity:1;stroke:none;stroke-width:0.0113771;stroke-dasharray:none;stroke-opacity:1"
         d="m 5.1164903,1.715654 -0.071837,-0.0186 -0.020671,0.00672 -0.020671,0.0062 -0.00568,0.022221 -0.00568,0.021704 0.098185,0.03359 c 0,0 0.082255,0.029292 0.1224679,0.040823 0.040213,0.011531 0.2216868,0.1012845 0.2216868,0.1012845 l 0.1627808,0.083716 0.019637,0.00155 0.01912,0.00103 0.012919,-0.023771 0.012919,-0.024288 -0.010335,-0.00723 -0.010335,-0.00723 -0.038755,-0.02946 -0.039274,-0.029972 -0.081132,-0.041341 -0.081132,-0.041858 -0.034623,-0.00982 -0.034623,-0.00982 -0.1457265,-0.056846 z M 3.780131,1.807125 3.802869,1.798345 3.862814,1.775607 C 4.0154533,1.734988 3.877014,1.717046 3.848865,1.709457 H 3.823027 L 3.78737,1.716687 C 3.721381,1.731642 3.6601218,1.750638 3.6240725,1.77043 l -0.07183,0.027905 -0.1018026,0.053227 -0.1018026,0.053743 -0.053743,0.026872 -0.05426,0.027389 0.029972,0.045475 0.030489,0.045475 0.063562,-0.03669 0.063562,-0.036173 0.1240235,-0.065112 c 0.081075,-0.043377 0.1553413,-0.071112 0.227893,-0.10542 z m -1.2981119,0.9250078 -0.010852,0.013953 -0.010852,0.013953 -0.040308,0.079065 -0.040824,0.079582 -0.040824,0.09095 -0.041341,0.09095 -0.038757,0.1033529 -0.039274,0.1038696 v 0.031523 0.032039 l 0.018603,0.020671 0.01912,0.020671 h 0.014986 0.014469 l 0.012402,-0.048059 0.012402,-0.048576 0.036173,-0.1080038 0.035657,-0.107487 0.080615,-0.1617472 0.080615,-0.1612305 -0.031006,-0.022738 z m -0.2537313,1.7347778 -0.0062,0.0062 -0.0062,0.0062 0.029972,0.013436 0.029972,0.013436 v 0.015503 0.014986 h 0.010335 0.010335 l 0.013436,0.079582 0.013436,0.079065 0.044442,0.092501 0.010852,0.022221 0.021187,0.045475 0.00258,0.00413 0.010335,0.020671 0.067696,0.094051 0.068213,0.094051 0.013953,0.00517 0.013953,0.00517 0.00413,-0.00362 0.00413,-0.00362 L 2.541447,5.0002116 2.497522,4.9283814 2.4282756,4.7862712 2.3585124,4.6436442 2.3388753,4.5836996 2.3192383,4.5242717 2.273763,4.4958496 Z"
         sodipodi:nodetypes="ccccccczcccccccccccccccccccccccccccccccccccccccccccccccccccccccccccccccccccccccccccccccccccccccc" /></g></g><g
     inkscape:groupmode="layer"
     id="layer5"
     inkscape:label="Tool"
     style="display:inline"><g
       id="g4456"
       style="display:inline"><path
         id="path4538"
         style="display:inline;fill:#bcb6a9;fill-opacity:1;stroke-width:0.0111616"
         d="m 2.9455567,1.0686686 c -0.06469,-6.409e-4 -0.1252401,0.00364 -0.1782837,0.012402 l -0.066146,0.010852 -0.028422,0.017053 -0.00103,5.168e-4 -0.00362,0.00258 -0.018603,0.011369 -0.052193,0.031523 -0.029972,0.047542 -0.029456,0.047542 -0.00413,0.049093 -0.00362,0.049609 0.00155,0.00517 -5.167e-4,0.0062 0.0093,0.019637 0.00568,0.016536 0.016536,0.047542 0.2444295,0.289388 0.2444295,0.2899048 0.010852,0.042375 0.010852,0.042375 -0.0093,0.03669 c -0.00493,0.02022 -0.046311,0.1103908 -0.092501,0.1999878 l -0.084233,0.1627808 -0.040824,0.01757 c -0.022394,0.00984 -0.1088914,0.038683 -0.1922363,0.063562 L 2.557464,2.6174078 2.496486,2.6334278 2.443776,2.6339446 2.39365,2.6344613 2.382798,2.6334313 2.35541,2.6158613 2.325954,2.5977743 2.0954771,2.3218221 1.8644835,2.0463867 l -0.00827,-0.00517 -0.00517,-0.0062 -0.024805,-0.012919 -0.010335,-0.0062 -0.048576,-0.029972 -0.014469,-0.00155 -0.00672,-0.0031 -0.020154,0.00103 -0.00517,-5.168e-4 c -0.00197,-1.663e-4 -0.00374,-3.904e-4 -0.00568,-5.168e-4 l -0.00258,-5.167e-4 -0.00207,5.167e-4 c -0.021298,-0.00104 -0.041047,6.407e-4 -0.059945,0.00465 l -0.013953,5.168e-4 -0.00827,0.00517 c -0.020621,0.00688 -0.0404,0.017142 -0.059945,0.031006 l -0.03669,0.025838 -0.00362,0.00568 -0.00568,0.00362 -0.01602,0.031523 -5.168e-4,5.167e-4 -0.0062,0.0062 -0.00672,0.014469 -0.035657,0.057878 -0.0093,0.032556 -5.167e-4,0.00155 -0.018087,0.064079 C 1.391494,2.4003024 1.375212,2.5415174 1.379238,2.7031905 l 0.0031,0.1353922 0.028422,0.1271241 0.028422,0.127124 0.040824,0.1038696 c 0.075996,0.1911874 0.1981479,0.3647794 0.3622518,0.5146973 l 0.042375,0.03824 0.033073,0.030489 0.097668,0.056327 0.035657,0.025838 0.043925,0.020154 0.069246,0.040308 0.014469,0.00879 0.00258,0.00103 0.026872,0.015503 0.079065,0.027905 c 0.032864,0.011698 0.06635,0.022203 0.100769,0.031523 l 0.01602,0.00568 0.01912,0.00362 c 0.1876402,0.045782 0.3940468,0.056431 0.5968628,0.030489 0.043651,-0.00559 0.097175,-0.00702 0.118339,-0.00362 l 0.03514,0.00568 0.00517,0.00155 0.038757,0.024288 0.041341,0.025838 0.3550171,0.4309814 c 0.1953809,0.2370348 0.4774462,0.5814958 0.6268352,0.765328 0.4624023,0.5690142 0.9334686,1.1497277 1.1038085,1.361674 0.089609,0.111497 0.2146808,0.2669714 0.2780193,0.3451986 0.063338,0.078227 0.1398155,0.173821 0.1700154,0.2123901 l 0.055294,0.07028 0.07028,0.047542 0.019637,0.01912 0.040824,0.022738 0.01602,0.012919 0.01757,0.00827 0.076481,0.05116 0.03669,0.012402 0.015503,0.00982 0.05116,0.012402 c 0.041113,0.012058 0.095299,0.025361 0.1353923,0.033073 l 0.093018,0.018087 0.093534,-0.00568 c 0.055994,-0.00313 0.1098951,-0.010526 0.162264,-0.022221 l 0.024805,-0.0031 0.025838,-0.00982 c 0.1728683,-0.04888 0.3243414,-0.1458847 0.451652,-0.2904216 8.789e-4,-9.978e-4 0.00171,-0.0021 0.00258,-0.0031 l 0.00775,-0.00775 0.00258,-0.00413 c 0.00741,-0.00871 0.01498,-0.017317 0.022221,-0.026355 0.013529,-0.016884 0.043413,-0.065755 0.066663,-0.1085205 l 0.042375,-0.078031 0.00723,-0.023771 0.017053,-0.053743 c 0.013553,-0.042827 0.030773,-0.1084051 0.038263,-0.145729 l 0.013953,-0.068213 -0.0031,-0.098185 C 7.3938222,6.5186491 7.3840046,6.45056 7.367509,6.3846232 c -4.04e-5,-1.612e-4 4.04e-5,-3.555e-4 0,-5.167e-4 L 7.359759,6.3422485 7.342706,6.3024575 C 7.328181,6.2603925 7.311183,6.2199285 7.291546,6.1820514 l -0.00517,-0.012402 -0.00568,-0.00827 C 7.266473,6.1358013 7.2510615,6.1116249 7.2347005,6.089034 L 7.1923259,6.0306397 6.4766073,5.2870158 C 5.2838075,4.0481082 4.3898734,3.1063723 4.3625244,3.0602783 4.3520344,3.0425994 4.3420503,3.0112911 4.3408203,2.9905151 l -0.00207,-0.037724 0.025838,-0.086817 c 0.00932,-0.031796 0.017227,-0.063716 0.024288,-0.095601 1.168e-4,-5.273e-4 4.006e-4,-0.00102 5.168e-4,-0.00155 l 0.00517,-0.018087 0.00207,-0.018087 c 0.036465,-0.1881802 0.03387,-0.37658 -0.00517,-0.5565545 l -0.00568,-0.041341 -0.014469,-0.040308 C 4.3311674,1.9524913 4.2676103,1.8168081 4.1821737,1.6918864 L 4.1816569,1.6913696 C 4.1308968,1.6172311 4.072519,1.5471796 4.0064738,1.4815633 L 3.9537639,1.425236 3.9382609,1.4154175 3.9026042,1.381311 3.7744466,1.3012126 3.6468058,1.2216309 3.6044312,1.2050944 3.5517212,1.1839071 C 3.3712517,1.1129208 3.1396254,1.0705913 2.9455567,1.0686686 Z m 3.5909952,5.4213746 0.036174,0.013953 0.00672,0.00258 0.00207,0.00103 0.026355,0.012919 0.00362,0.00207 0.021704,0.03514 0.024288,0.039791 0.00207,0.034107 c 0.00105,0.018748 -0.00542,0.050278 -0.013953,0.07028 l -0.011369,0.027388 c -0.00465,0.00607 -0.00965,0.011418 -0.014986,0.016536 l -0.020154,0.013953 -0.019637,0.013436 c -1.459e-4,6.44e-5 -3.706e-4,-6.39e-5 -5.168e-4,0 -0.00855,0.00374 -0.017868,0.00663 -0.027388,0.00879 l -0.023254,0.00103 c -0.021443,0.0012 -0.050581,-8.309e-4 -0.065112,-0.00465 l -0.019637,-0.00517 -0.014469,-0.00878 -0.00103,-0.00103 h -5.167e-4 l -0.018603,-0.01757 -0.020154,-0.018604 -0.010852,-0.020671 -0.00723,-0.033073 -0.00879,-0.039274 5.168e-4,-0.00517 0.00103,-0.0093 0.011369,-0.029456 0.00982,-0.024805 0.012402,-0.01602 0.00568,-0.00723 0.017053,-0.014469 0.026872,-0.021704 0.033073,-0.00775 0.00207,-5.168e-4 0.011886,-0.00155 z" /><path
         id="path4510"
         style="display:inline;fill:#bdb7ab;fill-opacity:1;stroke-width:0.0111616"
         d="m 2.9310875,1.3322184 c 0.197489,-0.012066 0.3808365,0.076541 0.545903,0.1759247 0.291463,0.1431057 0.4805943,0.4411647 0.5275242,0.7580286 0.079246,0.3026075 0.00575,0.6375385 -0.137948,0.9090025 C 3.7657202,3.3656757 3.6125258,3.5172611 3.4199025,3.6112453 3.241344,3.7312192 3.0162608,3.7594997 2.8075824,3.7894489 2.2607005,3.8326653 1.72919,3.4143522 1.6545595,2.8684972 1.6222395,2.6706144 1.6249897,2.4526867 1.7006733,2.2665278 1.8701824,2.4404066 2.0054192,2.6502077 2.1764808,2.8200683 2.3494272,2.9680093 2.5888302,2.8671261 2.780434,2.8169034 2.9085178,2.7726981 3.0656858,2.7463096 3.1202095,2.6075847 3.1949026,2.4367072 3.3289666,2.2686394 3.3219992,2.078302 3.3144311,1.8291513 3.0747776,1.6962074 2.949533,1.5046469 2.9139308,1.4158832 2.6932781,1.3028762 2.9310875,1.3322184 Z m 0.4030761,2.4768514 c 0.2031677,0.07753 0.3065913,0.3196837 0.4681875,0.459409 0.2873515,0.3830151 0.6202363,0.7286166 0.9058878,1.1120769 0.4712538,0.55861 0.916075,1.1416138 1.3736834,1.7101646 0.078133,0.091227 0.2030443,0.089089 0.2975335,0.1455352 C 6.4074672,7.2854982 6.1895893,7.2164379 6.1345093,7.1644206 5.9441378,7.0460782 5.8442105,6.8285627 5.6898821,6.6707099 4.9290814,5.7364757 4.1793443,4.7890086 3.3997962,3.8721071 3.3742181,3.855491 3.3500189,3.8355048 3.3341636,3.8090698 Z"
         sodipodi:nodetypes="ccccccccccccccccccccccc" /><path
         id="path4478"
         style="display:inline;fill:#3e382d;fill-opacity:1;stroke-width:0.0111616"
         d="M 2.8432373,1.0965739 C 2.719278,1.1068855 2.569731,1.1629426 2.5615697,1.3070545 2.5579721,1.469061 2.7286665,1.559551 2.8058711,1.6872758 2.895303,1.8365279 3.1026935,1.9462691 3.0964668,2.1383593 3.0345808,2.2736413 2.9792726,2.4337795 2.8816442,2.5434464 2.7144324,2.5918025 2.5416836,2.6811264 2.365098,2.6556527 2.150248,2.4736644 2.0002302,2.22027 1.79834,2.0267451 1.6701809,1.9749977 1.5195498,2.0457489 1.4857073,2.1853815 1.298098,2.7072267 1.4424886,3.3370026 1.8709594,3.698592 2.1904725,3.9770718 2.6368433,4.080642 3.0530602,4.0136899 3.2462317,3.9731881 3.3394103,4.1625066 3.4447333,4.2823729 4.2655313,5.267238 5.0616455,6.2735735 5.8745796,7.2641521 6.1999756,7.5825865 6.7850953,7.5782724 7.0997187,7.2423908 7.3819293,6.9740605 7.4542672,6.5110055 7.2551038,6.1734437 7.0864945,5.9218926 6.8381063,5.7317066 6.6422947,5.5013362 5.8840848,4.7058991 5.1105195,3.9240373 4.3705587,3.1118078 4.2312823,2.9527872 4.4042226,2.7629466 4.387733,2.5840301 4.4526896,1.9958197 4.0711756,1.3990377 3.5166017,1.2014803 3.3047768,1.1160519 3.070038,1.0958036 2.8432373,1.0965739 Z m 0.081132,0.2113566 C 3.3693756,1.2971053 3.8250656,1.515871 4.0357888,1.919374 4.2112694,2.2171983 4.221145,2.5893629 4.101042,2.9098915 4.0698028,3.0934201 4.1764019,3.2513755 4.3082946,3.3664797 5.1915808,4.3139553 6.1001132,5.2375731 6.9911492,6.1775578 7.2518087,6.4506611 7.1925444,6.9280531 6.8934191,7.1453133 6.6993398,7.3063969 6.4134548,7.3345305 6.1876935,7.2250206 5.9515157,7.1138986 5.8432542,6.8504992 5.6647843,6.6740042 4.9170307,5.7519708 4.1735451,4.8253165 3.4127166,3.9144912 3.3130653,3.826897 3.1869397,3.78046 3.0535596,3.8054632 2.7210264,3.8523301 2.3667307,3.8066633 2.0920468,3.6012361 1.6661146,3.3118343 1.5169775,2.7263942 1.6810405,2.2505098 1.823813,2.2984041 1.9241047,2.5230523 2.0499712,2.6402387 2.1398313,2.7586008 2.2480952,2.8918402 2.4129583,2.8779518 2.63153,2.8651362 2.8554555,2.7906167 3.047876,2.6866684 3.1521638,2.494114 3.3060819,2.2926497 3.3010859,2.0686025 3.2973798,1.8614915 3.1032828,1.7454062 2.9955978,1.5889017 2.9481789,1.4823697 2.6094089,1.2722801 2.9243693,1.3079305 Z M 6.4967611,6.2461304 C 6.3625284,6.2628208 6.2312836,6.3283135 6.1799824,6.4590322 6.0516882,6.6272191 6.1386129,6.8945871 6.3271995,6.9769393 6.5527999,7.1216716 6.896668,6.9323615 6.8962054,6.6610867 6.9336514,6.4334624 6.7143236,6.2432627 6.4967611,6.2461304 Z m 0.00207,0.2185913 c 0.1589878,-0.023846 0.2517374,0.1860035 0.142621,0.298677 -0.1132154,0.118591 -0.3341129,0.012911 -0.3028713,-0.1492658 0.00346,-0.079703 0.084117,-0.1420203 0.1602503,-0.1494112 z" /><path
         id="path4504"
         style="display:inline;fill:#aea89c;fill-opacity:1;stroke:none;stroke-width:0.0111616;stroke-opacity:1"
         d="m 4.0018233,3.5398356 c -0.1080107,0.043036 -0.2058209,0.1249818 -0.2681865,0.2206747 -0.036971,0.063808 -0.012018,0.1445326 0.041131,0.1913184 0.4339407,0.513972 0.8684782,1.0277011 1.3076371,1.5371382 0.2327556,0.2702262 0.459779,0.5450606 0.6841681,0.8222766 0.055315,0.044387 0.1377185,0.072374 0.1988616,0.023706 0.075099,-0.051149 0.1147905,-0.146571 0.202888,-0.1828188 C 6.2518396,6.115709 6.3035825,6.0372194 6.3015552,5.9451843 6.2214987,5.7961907 6.0786906,5.6856025 5.9722659,5.5542626 5.4964667,5.0285396 5.0097433,4.5127663 4.5319935,3.9889797 4.3797435,3.8474599 4.2558206,3.6755263 4.0953572,3.5439697 c -0.031178,-0.00137 -0.062356,-0.00275 -0.093534,-0.00413 z"
         sodipodi:nodetypes="sccccccccssss" /><path
         id="path4522"
         style="display:inline;fill:#e3ddd2;fill-opacity:1;stroke-width:0.0111616"
         d="M 2.841687,1.3368693 C 2.9838611,1.4437225 3.0867106,1.6227145 3.2143489,1.755077 3.3747499,1.9038682 3.4601483,2.1475701 3.3610366,2.3528265 3.2698479,2.5198436 3.2298867,2.7545757 3.0361588,2.8336619 2.8312239,2.9037142 2.594145,3.0018785 2.3822847,2.9098991 2.6124828,2.8858704 2.8444307,2.8240742 3.0494287,2.7161003 3.167936,2.5757998 3.2389336,2.3884008 3.312351,2.2177462 3.3591651,2.0591451 3.3016036,1.8774678 3.1793359,1.7663328 3.0792694,1.6248887 2.8964584,1.4741629 2.841687,1.3368693 Z M 1.7027385,2.2742798 c 0.1466778,0.14468 -0.026244,0.3847143 0.048594,0.5679927 0.038558,0.3175229 0.217731,0.6136181 0.4728193,0.8055658 C 1.7283847,3.4116082 1.526657,2.7752897 1.7027385,2.2742798 Z"
         sodipodi:nodetypes="ccccccccccccc" /></g></g><g
     inkscape:groupmode="layer"
     id="layer2"
     inkscape:label="Layer 2"
     style="display:inline"><path
       id="rect8770"
       style="fill:url(#linearGradient12410);fill-opacity:1;stroke:#0000fe;stroke-width:0.318299;stroke-linecap:round;stroke-linejoin:miter;stroke-miterlimit:4;stroke-dasharray:none;stroke-opacity:1;filter:url(#filter12076)"
       d="M 0.85856477,2.1943203 -1.9870518,5.0399369 -4.8326684,2.1943203 -3.2662821,2.1818768 v -2.38714435 h 2.38714435 V 2.1818768 Z"
       transform="matrix(0.83124197,0,0,0.83124197,7.1103494,0.35207832)"
       sodipodi:nodetypes="cccccccc" /></g></svg>
