<?xml version="1.0" encoding="UTF-8" standalone="no"?>
<!-- Created with Inkscape (http://www.inkscape.org/) -->

<svg
   width="32"
   height="32"
   viewBox="0 0 8.4666667 8.4666667"
   version="1.1"
   id="svg5"
   xml:space="preserve"
   xmlns="http://www.w3.org/2000/svg"
   xmlns:svg="http://www.w3.org/2000/svg"><defs
     id="defs2" /><g
     id="layer4"
     style="display:inline"><g
       id="g11806"><path
         id="path11890"
         style="display:inline;fill:#f3f3f3;stroke:none;stroke-width:0.0113546;stroke-opacity:1"
         d="m 4.6575969,7.4646607 -0.495577,0.00672 -0.4950603,0.0062 -0.062528,0.00517 -0.062528,0.00465 -0.153479,0.00672 -0.1529623,0.00672 -0.2330607,0.017053 -0.2325439,0.016536 -0.1684652,0.017053 -0.1679484,0.01757 -0.1498616,0.027389 -0.1503785,0.027905 -0.050126,0.01757 -0.050126,0.018087 -0.020671,0.018604 -0.00879,0.00827 -0.011369,0.00982 v 0.014986 0.014986 l 0.028422,0.018603 0.027905,0.018604 0.081649,0.021704 0.082166,0.021187 0.097152,0.017053 0.097152,0.016536 0.2098063,0.022738 0.2103231,0.022738 0.3064412,0.018087 0.3064412,0.018604 0.2950725,0.00827 0.078548,0.00258 0.00103,0.00103 0.03359,-5.167e-4 0.1824178,0.00568 0.3576009,0.00155 0.3576009,0.00155 L 5.1542005,7.931815 5.5629611,7.920446 5.7391777,7.909077 5.9148776,7.897708 6.1252006,7.879621 6.335007,7.862051 6.488486,7.83983 6.6414482,7.817609 l 0.094051,-0.022221 0.094051,-0.022221 0.031523,-0.016536 0.032039,-0.016536 0.00827,-0.00982 0.00723,-0.00362 V 7.722005 L 6.9220581,7.7054728 6.8920858,7.6780843 6.8621135,7.6501791 6.7747803,7.6269247 6.6869304,7.604187 6.5396525,7.5809326 6.3918579,7.5576783 6.1422608,7.5349406 5.8921468,7.512203 5.6880249,7.5008342 5.4833863,7.4894654 5.0704916,7.477063 Z" /><path
         id="path11884"
         style="display:inline;fill:#333c33;fill-opacity:1;stroke:none;stroke-width:0.0113546;stroke-opacity:1"
         d="m 4.7630168,0.5157308 -0.3441651,0.003617 -0.3431315,0.003617 h -5.167e-4 -5.168e-4 -0.010335 l -0.064079,0.0315226 -0.064079,0.0315226 -0.0093,0.0103353 -0.00362,0.00155 -0.025322,0.0294556 -0.00207,0.002067 -0.026872,0.0232544 -0.00723,0.0134359 -0.021187,0.0232544 -0.022738,0.0511597 -0.011885,0.0268717 -0.00827,0.0170532 -5.167e-4,0.002584 -0.00207,0.005168 -0.037724,0.2728516 -0.036174,0.2614827 -0.00207,0.011369 -0.00878,0.00775 -0.00982,0.00827 -0.081132,0.029972 -0.032039,0.010335 -0.0062,0.00258 -0.027905,0.00879 -0.045992,0.019637 -0.068213,0.025322 -0.022738,0.00827 -0.05426,0.026355 -0.024805,0.010335 -0.029972,0.015503 -0.013953,0.0062 -0.038241,0.020671 -0.074414,0.03669 -0.013953,-0.00568 -0.013953,-0.00517 -0.2087727,-0.164331 -0.2082561,-0.1638143 -0.00207,-0.00103 -0.00827,-0.00672 -0.00362,-0.00155 -0.00568,-0.00413 -0.031523,-0.012402 -0.039791,-0.020154 -0.018603,-0.00362 -0.00413,-0.00207 -0.0062,-5.168e-4 -0.00672,-0.00258 -0.019637,-0.00775 h -0.027389 l -0.046509,-0.00982 -0.049609,0.00879 h -0.037207 l -0.00258,0.00103 -0.00465,0.00207 -0.01912,0.00879 -0.011885,0.00207 -0.039791,0.020671 -0.046509,0.017053 -0.00775,0.00775 -0.00672,0.0031 -0.00723,0.00723 -0.00103,5.167e-4 v 5.168e-4 l -0.252181,0.2526978 -0.2516642,0.2537312 -0.00103,0.00258 -0.00878,0.00879 -0.013436,0.03669 -0.00155,0.00413 -0.010335,0.024805 -0.026355,0.057361 v 0.083199 0.082682 l 0.010335,0.020154 5.168e-4,0.00879 0.020154,0.039791 0.00982,0.01912 0.00517,0.012919 0.00103,0.00362 0.021704,0.027388 0.00827,0.01602 0.1488281,0.1958537 0.1488282,0.1963704 0.014469,0.023771 0.00982,0.01602 0.00207,0.0062 -0.018087,0.038241 -5.168e-4,0.00155 -0.012919,0.023254 -0.034623,0.061495 -0.040308,0.096118 -0.014469,0.034107 -0.013436,0.028422 -0.00723,0.021187 -0.00568,0.012919 -0.037207,0.1023193 -0.037724,0.1023193 -0.034107,0.0031 -0.03359,0.0031 -0.2769857,0.034106 -0.2769857,0.03359 -0.043408,0.023254 -0.025322,0.010852 -0.00672,0.00517 -0.0062,0.0031 -0.00672,0.00568 -0.024288,0.013436 -0.026872,0.030489 -0.023254,0.01912 -5.167e-4,0.00103 -0.00258,0.00207 -0.00103,0.00207 -0.00672,0.00568 -0.00982,0.019637 -0.017053,0.01912 -0.019637,0.053743 -0.020671,0.040824 v 0.010852 0.00362 l -0.00568,0.014469 v 0.3715536 0.2299601 l -0.00103,0.1260905 0.00103,0.00362 v 0.011886 l 0.00568,0.020154 v 0.013953 l 0.00879,0.018087 0.00775,0.027905 0.00827,0.012919 0.00362,0.012919 0.018087,0.022221 5.168e-4,5.167e-4 0.00568,0.011886 0.0062,0.0062 5.167e-4,5.167e-4 0.024288,0.038757 0.01912,0.013953 0.012919,0.016536 0.020671,0.010335 5.168e-4,5.168e-4 0.00413,0.00465 0.016536,0.00827 h 5.168e-4 l 0.034623,0.025838 0.045475,0.014986 0.011369,0.00568 0.00258,0.00155 0.0093,0.00103 0.00362,0.00103 0.029972,0.00982 0.2160074,0.023254 0.2154908,0.023254 0.045475,0.00465 0.045475,0.00517 0.024288,5.168e-4 h 0.00207 l 0.024288,0.00568 0.014986,0.043925 0.00878,0.027388 0.025838,0.076998 0.00413,0.00982 0.029972,0.08785 0.044958,0.091467 0.018604,0.044442 0.00879,0.017053 0.00465,0.010335 0.010335,0.018087 0.014986,0.028422 0.00672,0.012919 0.029456,0.059945 -0.1844848,0.2413289 -0.1844849,0.2413289 -0.016536,0.047026 -0.010852,0.019637 -5.168e-4,0.011886 -0.00878,0.01912 5.167e-4,0.00723 v 5.168e-4 l -0.0031,0.00775 v 0.075448 l 5.168e-4,0.075448 0.020671,0.041858 0.01602,0.034623 0.026872,0.056844 0.00413,0.00413 0.00465,0.0093 0.2485636,0.2444295 0.2485637,0.2444295 0.066663,0.032556 0.00258,0.00155 0.064079,0.031006 h 0.030489 5.167e-4 l 0.024288,0.00258 0.058911,0.00568 0.00517,-0.00103 0.020154,0.00155 0.028422,-0.00878 h 0.036173 l 0.053744,-0.024805 0.017053,-0.00775 0.020154,-0.0062 0.00879,-0.00723 0.00723,-0.0031 0.1395264,-0.1105875 0.1395263,-0.1105876 0.081649,-0.066146 0.05271,-0.043408 0.029456,-0.023254 h 0.011369 0.0093 l 0.010335,0.00517 0.00982,0.00568 0.048576,0.022221 0.027905,0.013953 0.093534,0.047026 0.042375,0.01602 0.025838,0.012402 0.055294,0.018604 0.00413,0.00155 0.1276407,0.048576 0.022738,0.00517 0.022738,0.00827 h 0.00827 l 0.01757,0.0062 0.00827,0.020154 0.00672,0.018087 0.020671,0.1529622 0.00827,0.069246 0.020671,0.1545126 0.020154,0.1550293 0.022221,0.043925 0.0031,0.011369 0.00827,0.011369 0.019637,0.039791 0.027905,0.025322 0.011369,0.01602 0.013436,0.010335 0.013953,0.01602 0.018604,0.010852 0.010335,0.0093 0.013436,0.00672 0.00982,0.00775 0.018604,0.00723 0.00568,0.00258 0.00207,0.00103 0.015503,0.0093 h 5.168e-4 l 0.00775,0.00465 0.0062,0.00155 0.015503,0.00775 0.031006,0.0062 0.00672,0.00258 h 0.00672 l 0.00258,5.167e-4 0.047025,0.0093 0.3193604,0.00103 0.3193603,0.00155 0.034107,-0.00672 h 0.020154 l 0.013436,-0.00465 h 0.011369 l 0.011369,-0.00568 h 0.0093 l 0.0062,-0.0031 0.01602,-0.0031 0.061495,-0.03669 0.029456,-0.01757 5.168e-4,-5.168e-4 0.031006,-0.018604 0.0093,-0.012402 0.011886,-0.00775 0.017053,-0.028939 0.00775,-0.00775 0.00568,-0.012919 0.00103,-0.00103 0.023254,-0.031523 0.010852,-0.032039 0.00103,-0.00207 0.00258,-0.00827 0.00258,-0.00879 0.00465,-0.013436 0.00155,-0.00362 5.168e-4,-0.0031 v -5.168e-4 l 0.00362,-0.00775 5.168e-4,-0.00465 0.0062,-0.018087 0.032556,-0.2640665 0.032556,-0.2640666 0.00465,-0.0031 0.00465,-0.0031 0.00155,-5.167e-4 0.1291911,-0.042891 0.1302246,-0.043408 0.028939,-0.013953 0.00517,-0.00155 0.083716,-0.040308 0.041341,-0.018087 0.041858,-0.021187 0.058394,-0.027388 h 0.00982 0.00155 l 0.021187,0.014986 0.025838,0.018087 0.050126,0.038757 0.025838,0.020154 0.049093,0.039791 0.1452108,0.1111043 0.127124,0.099735 0.012402,0.00672 0.00568,0.00413 0.00103,5.167e-4 0.00362,0.00155 0.00362,0.00155 0.013436,0.0062 0.00207,0.00103 0.014986,0.00827 0.056844,0.030489 h 0.011369 0.030489 l 0.037724,0.0031 0.069763,0.00568 0.029972,-0.00878 h 0.025321 0.011369 l 0.056844,-0.025838 0.00775,-0.00362 0.00362,-0.00103 0.00258,-0.00207 0.042375,-0.019637 0.2511474,-0.2511474 0.2511475,-0.2480469 5.168e-4,-0.00155 0.00362,-0.00672 0.01912,-0.01912 0.022738,-0.064079 0.00103,-0.00207 0.018604,-0.036173 5.167e-4,-0.01602 0.00517,-0.013436 v -0.087333 -0.0031 l 0.00258,-0.054777 -5.168e-4,-0.00155 5.168e-4,-0.00878 -0.0031,-0.00672 v -0.012919 l -0.00517,-0.011369 -0.00103,-0.00207 -0.014986,-0.032039 -0.00568,-0.011886 -0.00723,-0.021704 -0.0062,-0.00775 -0.00155,-0.00362 -0.011886,-0.014986 -0.00207,-0.00258 L 7.1354818,5.6032756 6.9825196,5.4053548 6.8150879,5.1898641 6.8042359,5.166093 l -0.0093,-0.01912 v -0.00517 l 0.038241,-0.080098 0.00827,-0.017053 0.010852,-0.020671 0.00878,-0.018087 0.035657,-0.06873 0.0031,-0.00775 0.011885,-0.023771 0.01757,-0.044958 0.010852,-0.023254 0.021187,-0.059945 0.049093,-0.1281576 v -0.014469 -5.167e-4 l 0.00465,-0.013953 0.1369426,-0.014986 0.023254,-0.00207 0.039274,-0.00465 0.094051,-0.010335 0.2981731,-0.032556 0.010852,-0.00465 h 0.00207 l 0.0031,-0.00155 0.02067,-0.0093 0.00103,-5.168e-4 0.023771,-0.00517 0.023771,-0.015503 0.00155,-0.00103 0.030489,-0.012919 0.00103,-0.00103 0.00672,-0.00258 0.021704,-0.023254 0.012402,-0.00827 0.01912,-0.025321 0.03514,-0.038241 0.018087,-0.018603 0.013953,-0.037724 0.0031,-0.0062 0.023771,-0.05116 v -0.011369 -0.00258 l 0.00672,-0.01757 v -0.015503 l 5.168e-4,-0.00207 -0.00362,-0.3700032 v -0.0031 l -0.00362,-0.3725871 v -0.011369 l -0.027905,-0.056844 -0.027905,-0.056844 -0.049609,-0.049093 -0.049093,-0.049093 -0.042891,-0.01912 -0.018603,-0.011885 -0.011886,-0.00207 -0.022738,-0.00982 -0.2733684,-0.034623 -0.2733683,-0.034107 -0.031006,-5.167e-4 -0.036174,-0.00413 -0.040824,-0.1147217 -0.00103,-0.0031 -0.042375,-0.118339 -0.00155,-0.00362 -0.037207,-0.078548 -0.00103,-0.00155 -0.014986,-0.037207 -0.040308,-0.080099 -0.00103,-0.00207 -0.039274,-0.083199 v -0.0062 -0.00103 -0.00155 -0.00258 l 0.026355,-0.037724 0.029972,-0.042891 0.153479,-0.1984375 0.1090373,-0.1415935 0.018604,-0.023771 0.00103,-0.00207 0.024288,-0.031523 0.00827,-0.024288 0.0031,-0.00465 0.00362,-0.013953 0.013953,-0.025322 v -0.017053 l 0.00982,-0.028422 -0.00103,-0.068213 -5.168e-4,-0.067696 5.168e-4,-0.00723 -0.00878,-0.01757 v -0.0093 L 7.165465,1.8185112 7.143761,1.7606332 7.122574,1.7394462 l -5.168e-4,-0.00155 -0.0031,-0.00258 -5.167e-4,-0.00103 -0.00413,-0.00775 L 6.8657308,1.480013 6.8414429,1.4557251 6.6300863,1.2428182 l -0.0062,-0.0031 -0.00672,-0.00672 -0.00207,-0.00103 -0.00775,-0.00775 -0.03669,-0.013436 -0.00207,-0.00103 -0.046509,-0.023254 -0.00878,-0.00155 -0.026872,-0.013436 h -0.042891 l -0.039274,-0.00723 -0.00672,0.00103 -0.021704,0.00413 -0.011885,0.00207 h -0.051676 l -0.032039,0.014986 -0.00207,5.168e-4 -0.010852,0.00568 -0.01757,0.00827 -0.024805,0.011369 -0.00362,0.00155 -0.00103,5.168e-4 -0.033073,0.015503 -0.016536,0.012919 -0.00103,5.168e-4 -0.0031,0.00155 -0.015503,0.013436 -0.1793173,0.1390096 -0.2160074,0.1669149 -0.012919,0.00517 -0.00878,0.00362 h -0.0031 l -0.07028,-0.033073 -0.00517,-0.00258 -0.00103,-5.168e-4 L 5.6182696,1.5187833 5.5061318,1.4629723 5.4611728,1.4464363 5.4492868,1.4407563 5.330431,1.3973483 5.273587,1.3766773 5.211059,1.3534233 5.209509,1.3523933 5.198657,1.3389573 5.190907,1.3296573 5.153183,1.0609399 5.124244,0.85216707 l -5.167e-4,-0.001034 -0.00879,-0.0661458 -0.01757,-0.0361735 -0.00362,-0.007751 -0.00413,-0.0160197 -0.00672,-0.008785 -0.010335,-0.0242879 -0.00775,-0.008268 -0.00775,-0.0165365 -0.010335,-0.009302 -0.00103,-0.002584 -0.022738,-0.019637 -0.00103,-0.00155 -0.0031,-0.003101 -0.012919,-0.0170532 -0.00517,-0.003101 -0.00465,-0.005168 -0.01912,-0.0124023 -0.023254,-0.0211873 -0.040824,-0.0191203 h -5.167e-4 l -0.011886,-0.005684 -0.05271,-0.0242879 h -0.011369 -0.026355 l -0.023254,-0.006718 h -0.020154 z m -0.1839681,2.3471436 0.00723,5.167e-4 0.050126,0.00879 0.055294,0.00982 0.00258,5.168e-4 0.073897,0.019637 0.073897,0.030489 0.063045,0.025322 0.018603,0.0093 0.07028,0.041858 0.012919,0.00775 0.042891,0.026355 0.019637,0.014986 0.029456,0.022738 0.061495,0.059428 0.056327,0.05426 0.035657,0.044958 0.026355,0.033073 0.022738,0.035657 0.040824,0.063045 0.027388,0.055811 0.01912,0.038241 0.027905,0.062012 0.012402,0.041341 0.017053,0.06873 0.023771,0.096635 v 0.1384929 l -5.168e-4,0.1312581 -0.018604,0.081132 -0.019637,0.087333 -0.027389,0.07028 -0.00827,0.021704 -0.025321,0.05116 -0.016536,0.03359 -0.031006,0.050126 -0.040824,0.066146 -0.021187,0.025838 -0.013436,0.017053 -0.056844,0.058911 -0.046509,0.048059 -0.013953,0.012402 -0.045992,0.039791 -0.05271,0.035657 -0.013436,0.0093 -0.011886,0.00775 -0.040308,0.026355 -0.015503,0.0093 -0.040824,0.01912 -0.056844,0.024288 -0.091467,0.039791 -0.019637,0.00517 -0.0031,5.167e-4 -0.067696,0.013953 -0.084233,0.01757 -0.079065,0.00517 -0.0093,0.00103 h -0.0031 l -0.00982,5.168e-4 -0.020154,0.00103 -0.044958,0.00207 h -0.00103 l -0.070797,-0.00827 -0.059945,-0.00723 -0.027905,-0.00413 -0.062528,-0.016536 -0.050643,-0.013436 -0.021187,-0.00775 -0.031523,-0.011886 -0.054777,-0.024805 -0.010852,-0.00517 -0.05271,-0.024288 -0.029456,-0.014986 -0.062528,-0.041858 -0.043408,-0.028939 -0.031523,-0.022221 -0.060978,-0.059428 -0.00827,-0.00775 -0.034106,-0.03669 -0.041341,-0.043925 -0.032556,-0.044958 -0.042375,-0.058911 -5.168e-4,-5.167e-4 -0.013436,-0.022738 -0.038241,-0.076998 -0.031006,-0.062012 -0.016536,-0.048059 -0.012919,-0.03669 -0.010335,-0.039274 -0.014469,-0.054777 -0.0062,-0.041858 -0.00517,-0.03514 5.167e-4,-0.1178223 5.168e-4,-0.1214396 0.00413,-0.026355 0.00362,-0.023254 0.00258,-0.012402 0.00413,-0.022738 0.00982,-0.035657 0.00982,-0.035657 0.00568,-0.01757 0.015503,-0.047542 0.00413,-0.010852 0.033073,-0.069763 0.027905,-0.059428 0.011369,-0.022738 0.00207,-0.00362 0.00155,-0.00207 0.028939,-0.042891 0.040824,-0.053744 0.048576,-0.063562 0.044442,-0.044442 0.022221,-0.022221 0.014469,-0.012402 0.060461,-0.051676 0.05116,-0.034623 0.044958,-0.031006 0.00258,-0.00155 0.00362,-0.00207 0.0031,-0.00155 0.00258,-0.00155 0.064595,-0.032556 0.031006,-0.015503 0.019637,-0.00775 0.042891,-0.01757 0.013436,-0.00465 0.00207,-0.00103 0.018604,-0.0062 0.042891,-0.012919 0.032556,-0.00982 0.027388,-0.00775 0.00207,-5.168e-4 0.011886,-0.00155 0.054777,-0.00775 0.021187,-0.0031 0.1204061,-5.168e-4 z" /><path
         style="display:inline;fill:#9db19d;fill-opacity:1;stroke:none;stroke-width:0.0113546;stroke-opacity:1"
         d="m 4.7903226,6.9491114 0.036975,-0.017546 0.012724,-0.025034 0.012724,-0.025034 0.029413,-0.2270917 0.029413,-0.2270917 0.013536,-0.1048107 0.013536,-0.1048106 0.022613,-0.021444 0.022613,-0.021444 0.1021913,-0.024987 0.1021913,-0.024987 0.1299713,-0.050796 0.1299713,-0.050797 0.1425387,-0.073334 0.1425388,-0.073334 0.021445,2.27e-5 0.021445,2.27e-5 0.075069,0.060287 0.075069,0.060287 0.1021913,0.079933 0.1021912,0.079933 0.1056414,0.080426 0.1056412,0.080426 0.031302,0.00687 0.031301,0.00687 0.024017,-0.00895 0.024017,-0.00895 L 6.6756272,6.0938933 6.898652,5.8740394 6.909869,5.8445354 6.921086,5.8150314 6.914066,5.7862014 6.907046,5.7573714 6.875501,5.7176304 6.843956,5.6778894 6.6648186,5.4451204 6.4856813,5.2123514 l -0.010244,-0.02688 -0.010244,-0.02688 0.049882,-0.086666 0.049882,-0.086666 0.052151,-0.1040394 0.052151,-0.1040394 0.044182,-0.1287296 0.044182,-0.1287296 0.013881,-0.058673 0.013881,-0.058673 0.019696,-0.017824 0.019696,-0.017824 0.283132,-0.028594 0.2831321,-0.028594 0.072074,-0.010713 0.072074,-0.010713 0.027785,-0.018205 0.027785,-0.018206 0.010848,-0.028532 0.010848,-0.028532 V 3.896195 3.5977321 L 7.5998726,3.5616289 7.5872871,3.5255258 7.5526835,3.5076316 7.51808,3.4897375 7.3296615,3.4679217 7.141243,3.446106 6.9822788,3.4290517 6.8233146,3.4119973 6.8036603,3.392364 6.7840061,3.3727306 6.7504897,3.2536066 6.7169731,3.1344843 6.6646648,3.0039065 6.6123565,2.8733288 6.5446781,2.7519854 6.4769997,2.6306419 V 2.608024 2.5854063 l 0.177611,-0.2364174 0.1776111,-0.2364173 0.03806,-0.046507 0.03806,-0.046507 0.00685,-0.034241 0.00685,-0.034241 -0.017263,-0.032798 -0.017263,-0.032798 -0.2137724,-0.2119783 -0.2137726,-0.2119782 -0.041384,-0.00764 -0.041384,-0.00764 -0.026743,0.01424 -0.026743,0.01424 -0.2157371,0.1649353 -0.2157372,0.1649353 -0.054954,0.043278 -0.054954,0.043279 h -0.02872 -0.02872 l -0.06394,-0.0385 L 5.5970193,1.8141453 5.4919563,1.761684 5.3868935,1.7092227 5.3004705,1.6748919 5.2140477,1.6405611 5.0935068,1.6067137 4.9729659,1.5728665 4.9580531,1.5579537 4.9431404,1.543041 l -0.03911,-0.282964 -0.03911,-0.28296404 -0.0075,-0.0556466 -0.0075,-0.0556466 -0.031427,-0.0351901 -0.031427,-0.0351901 -0.3251863,-0.00334 -0.3251863,-0.00334 -0.036971,0.0374039 -0.036971,0.0374041 -0.042992,0.31792844 -0.042992,0.3179284 -0.015528,0.036472 -0.015527,0.036472 -0.065678,0.018094 -0.065678,0.018094 -0.1192232,0.039952 -0.1192231,0.039952 -0.1076837,0.05079 -0.1076839,0.05079 -0.087654,0.050559 -0.087654,0.050559 -0.031754,-3.997e-4 -0.031754,-3.996e-4 -0.271926,-0.2152461 -0.2719261,-0.215246 -0.036499,-0.00685 -0.036499,-0.00685 -0.026535,0.00807 -0.026535,0.00807 -0.2137726,0.2115848 -0.2137724,0.2115849 -0.017263,0.032798 -0.017263,0.032798 0.00641,0.032045 0.00641,0.032045 0.1648008,0.2158612 0.1648008,0.2158613 0.051309,0.069699 0.05131,0.069699 v 0.024474 0.024474 l -0.028483,0.05092 -0.028483,0.05092 -0.051997,0.101113 -0.051997,0.101113 -0.044731,0.1146241 -0.044731,0.1146241 -0.027893,0.1021913 -0.027893,0.1021913 -0.023381,0.019248 -0.023381,0.019248 -0.047768,0.00592 -0.047768,0.00592 L 1.8216289,3.440908 1.6569874,3.458552 1.517731,3.47504 1.3784745,3.491528 1.3560455,3.503532 1.3336165,3.515536 1.3164675,3.548699 1.2993185,3.581862 v 0.306399 0.3063985 l 0.011072,0.02912 0.011072,0.02912 0.034486,0.020972 0.034486,0.020972 0.2468229,0.025063 0.2468231,0.025063 0.1015472,0.010415 0.1015472,0.010415 0.020711,0.020711 0.020711,0.020711 0.028056,0.104838 0.028056,0.1048379 0.040096,0.096862 0.040096,0.096862 0.052184,0.1043626 0.052184,0.1043625 0.040413,0.065885 0.040413,0.065885 -0.010498,0.028107 -0.010498,0.028106 -0.1305777,0.1718408 -0.1305778,0.1718407 -0.077917,0.097514 -0.077917,0.097514 -0.01055,0.02752 -0.01055,0.02752 0.00745,0.03493 0.00745,0.03493 0.2286254,0.2239595 0.2286255,0.2239597 0.036409,0.00714 0.036409,0.00714 0.040272,-0.021042 0.040273,-0.021041 L 2.8780029,6.083834 3.1394826,5.8766128 h 0.020877 0.020878 l 0.1519181,0.078855 0.1519181,0.078855 0.1078686,0.041844 0.1078685,0.041844 0.073805,0.020558 0.073805,0.020558 0.048064,0.012415 0.048064,0.012416 0.010395,0.019485 0.010395,0.019485 0.034917,0.2384463 0.034917,0.2384463 0.012577,0.096463 0.012577,0.096463 0.01327,0.016085 0.01327,0.016085 0.034064,0.020827 0.034064,0.020827 0.2991805,4.54e-5 0.2991805,4.54e-5 0.036975,-0.017546 z M 4.3139511,5.1481139 4.2231144,5.1379202 4.1152458,5.1095882 4.0073773,5.081256 3.8824768,5.0196361 3.7575764,4.9580163 3.6824291,4.9008991 3.6072818,4.8437819 3.5105537,4.7421371 3.4138255,4.6404923 3.3599248,4.5540121 3.3060241,4.4675321 3.2626073,4.3668258 3.2191904,4.2661195 3.1963949,4.1768385 3.1735995,4.0875576 3.1612438,3.980045 3.1488882,3.8725324 l 0.00694,-0.068127 0.00694,-0.068128 0.016798,-0.093958 0.016798,-0.093958 0.034932,-0.09907 0.034932,-0.09907 0.026436,-0.052247 0.026436,-0.052248 0.053384,-0.07833 0.053384,-0.07833 0.057986,-0.067383 0.057987,-0.067384 0.1115617,-0.088958 0.1115615,-0.088958 0.1155302,-0.055929 0.1155301,-0.055929 0.069866,-0.023087 0.069866,-0.023087 0.099102,-0.017282 0.099101,-0.017282 h 0.1219258 0.1219258 l 0.1002242,0.017478 0.1002242,0.017478 0.085775,0.029173 0.085775,0.029173 0.1078686,0.056125 0.1078685,0.056125 0.098666,0.078435 0.098666,0.078435 0.078226,0.091861 0.078226,0.091861 0.04607,0.076914 0.046069,0.076915 0.036342,0.082802 0.036342,0.082802 0.029479,0.1093929 0.029479,0.1093929 -2.033e-4,0.2043826 -2.032e-4,0.2043825 -0.029688,0.1110178 -0.029688,0.1110177 -0.050862,0.1073714 -0.050862,0.1073713 -0.06042,0.087425 -0.06042,0.087425 -0.087716,0.087144 -0.087716,0.087144 -0.085629,0.059195 -0.085628,0.059195 -0.1054993,0.049975 -0.1054992,0.049976 -0.1072126,0.028516 -0.1072126,0.028516 -0.1078685,0.01134 -0.1078686,0.01134 -0.034064,-0.00129 -0.034064,-0.00129 -0.090837,-0.010194 z"
         id="path11848" /><path
         id="path11876"
         style="display:inline;fill:#aec1ae;fill-opacity:1;stroke:none;stroke-width:0.0113771;stroke-dasharray:none;stroke-opacity:1"
         d="m 5.1164903,1.715654 -0.071837,-0.0186 -0.020671,0.00672 -0.020671,0.0062 -0.00568,0.022221 -0.00568,0.021704 0.098185,0.03359 c 0,0 0.082255,0.029292 0.1224679,0.040823 0.040213,0.011531 0.2216868,0.1012845 0.2216868,0.1012845 l 0.1627808,0.083716 0.019637,0.00155 0.01912,0.00103 0.012919,-0.023771 0.012919,-0.024288 -0.010335,-0.00723 -0.010335,-0.00723 -0.038755,-0.02946 -0.039274,-0.029972 -0.081132,-0.041341 -0.081132,-0.041858 -0.034623,-0.00982 -0.034623,-0.00982 -0.1457265,-0.056846 z M 3.780131,1.807125 3.802869,1.798345 3.862814,1.775607 C 4.0154533,1.734988 3.877014,1.717046 3.848865,1.709457 H 3.823027 L 3.78737,1.716687 C 3.721381,1.731642 3.6601218,1.750638 3.6240725,1.77043 l -0.07183,0.027905 -0.1018026,0.053227 -0.1018026,0.053743 -0.053743,0.026872 -0.05426,0.027389 0.029972,0.045475 0.030489,0.045475 0.063562,-0.03669 0.063562,-0.036173 0.1240235,-0.065112 c 0.081075,-0.043377 0.1553413,-0.071112 0.227893,-0.10542 z m -1.2981119,0.9250078 -0.010852,0.013953 -0.010852,0.013953 -0.040308,0.079065 -0.040824,0.079582 -0.040824,0.09095 -0.041341,0.09095 -0.038757,0.1033529 -0.039274,0.1038696 v 0.031523 0.032039 l 0.018603,0.020671 0.01912,0.020671 h 0.014986 0.014469 l 0.012402,-0.048059 0.012402,-0.048576 0.036173,-0.1080038 0.035657,-0.107487 0.080615,-0.1617472 0.080615,-0.1612305 -0.031006,-0.022738 z m -0.2537313,1.7347778 -0.0062,0.0062 -0.0062,0.0062 0.029972,0.013436 0.029972,0.013436 v 0.015503 0.014986 h 0.010335 0.010335 l 0.013436,0.079582 0.013436,0.079065 0.044442,0.092501 0.010852,0.022221 0.021187,0.045475 0.00258,0.00413 0.010335,0.020671 0.067696,0.094051 0.068213,0.094051 0.013953,0.00517 0.013953,0.00517 0.00413,-0.00362 0.00413,-0.00362 L 2.541447,5.0002116 2.497522,4.9283814 2.4282756,4.7862712 2.3585124,4.6436442 2.3388753,4.5836996 2.3192383,4.5242717 2.273763,4.4958496 Z" /></g></g></svg>
