<?xml version="1.0" encoding="UTF-8" standalone="no"?>
<!-- Created with Inkscape (http://www.inkscape.org/) -->

<svg
   width="32"
   height="32"
   viewBox="0 0 8.4666667 8.4666667"
   version="1.1"
   id="svg5"
   xml:space="preserve"
   xmlns="http://www.w3.org/2000/svg"
   xmlns:svg="http://www.w3.org/2000/svg"><defs
     id="defs2" /><g
     id="layer5"
     style="display:inline"><g
       id="g4456"
       style="display:inline"><path
         id="path4538"
         style="display:inline;fill:#bcb6a9;fill-opacity:1;stroke-width:0.0111616"
         d="m 2.9455567,1.0686686 c -0.06469,-6.409e-4 -0.1252401,0.00364 -0.1782837,0.012402 l -0.066146,0.010852 -0.028422,0.017053 -0.00103,5.168e-4 -0.00362,0.00258 -0.018603,0.011369 -0.052193,0.031523 -0.029972,0.047542 -0.029456,0.047542 -0.00413,0.049093 -0.00362,0.049609 0.00155,0.00517 -5.167e-4,0.0062 0.0093,0.019637 0.00568,0.016536 0.016536,0.047542 0.2444295,0.289388 0.2444295,0.2899048 0.010852,0.042375 0.010852,0.042375 -0.0093,0.03669 c -0.00493,0.02022 -0.046311,0.1103908 -0.092501,0.1999878 l -0.084233,0.1627808 -0.040824,0.01757 c -0.022394,0.00984 -0.1088914,0.038683 -0.1922363,0.063562 L 2.557464,2.6174078 2.496486,2.6334278 2.443776,2.6339446 2.39365,2.6344613 2.382798,2.6334313 2.35541,2.6158613 2.325954,2.5977743 2.0954771,2.3218221 1.8644835,2.0463867 l -0.00827,-0.00517 -0.00517,-0.0062 -0.024805,-0.012919 -0.010335,-0.0062 -0.048576,-0.029972 -0.014469,-0.00155 -0.00672,-0.0031 -0.020154,0.00103 -0.00517,-5.168e-4 c -0.00197,-1.663e-4 -0.00374,-3.904e-4 -0.00568,-5.168e-4 l -0.00258,-5.167e-4 -0.00207,5.167e-4 c -0.021298,-0.00104 -0.041047,6.407e-4 -0.059945,0.00465 l -0.013953,5.168e-4 -0.00827,0.00517 c -0.020621,0.00688 -0.0404,0.017142 -0.059945,0.031006 l -0.03669,0.025838 -0.00362,0.00568 -0.00568,0.00362 -0.01602,0.031523 -5.168e-4,5.167e-4 -0.0062,0.0062 -0.00672,0.014469 -0.035657,0.057878 -0.0093,0.032556 -5.167e-4,0.00155 -0.018087,0.064079 C 1.391494,2.4003024 1.375212,2.5415174 1.379238,2.7031905 l 0.0031,0.1353922 0.028422,0.1271241 0.028422,0.127124 0.040824,0.1038696 c 0.075996,0.1911874 0.1981479,0.3647794 0.3622518,0.5146973 l 0.042375,0.03824 0.033073,0.030489 0.097668,0.056327 0.035657,0.025838 0.043925,0.020154 0.069246,0.040308 0.014469,0.00879 0.00258,0.00103 0.026872,0.015503 0.079065,0.027905 c 0.032864,0.011698 0.06635,0.022203 0.100769,0.031523 l 0.01602,0.00568 0.01912,0.00362 c 0.1876402,0.045782 0.3940468,0.056431 0.5968628,0.030489 0.043651,-0.00559 0.097175,-0.00702 0.118339,-0.00362 l 0.03514,0.00568 0.00517,0.00155 0.038757,0.024288 0.041341,0.025838 0.3550171,0.4309814 c 0.1953809,0.2370348 0.4774462,0.5814958 0.6268352,0.765328 0.4624023,0.5690142 0.9334686,1.1497277 1.1038085,1.361674 0.089609,0.111497 0.2146808,0.2669714 0.2780193,0.3451986 0.063338,0.078227 0.1398155,0.173821 0.1700154,0.2123901 l 0.055294,0.07028 0.07028,0.047542 0.019637,0.01912 0.040824,0.022738 0.01602,0.012919 0.01757,0.00827 0.076481,0.05116 0.03669,0.012402 0.015503,0.00982 0.05116,0.012402 c 0.041113,0.012058 0.095299,0.025361 0.1353923,0.033073 l 0.093018,0.018087 0.093534,-0.00568 c 0.055994,-0.00313 0.1098951,-0.010526 0.162264,-0.022221 l 0.024805,-0.0031 0.025838,-0.00982 c 0.1728683,-0.04888 0.3243414,-0.1458847 0.451652,-0.2904216 8.789e-4,-9.978e-4 0.00171,-0.0021 0.00258,-0.0031 l 0.00775,-0.00775 0.00258,-0.00413 c 0.00741,-0.00871 0.01498,-0.017317 0.022221,-0.026355 0.013529,-0.016884 0.043413,-0.065755 0.066663,-0.1085205 l 0.042375,-0.078031 0.00723,-0.023771 0.017053,-0.053743 c 0.013553,-0.042827 0.030773,-0.1084051 0.038263,-0.145729 l 0.013953,-0.068213 -0.0031,-0.098185 C 7.3938222,6.5186491 7.3840046,6.45056 7.367509,6.3846232 c -4.04e-5,-1.612e-4 4.04e-5,-3.555e-4 0,-5.167e-4 L 7.359759,6.3422485 7.342706,6.3024575 C 7.328181,6.2603925 7.311183,6.2199285 7.291546,6.1820514 l -0.00517,-0.012402 -0.00568,-0.00827 C 7.266473,6.1358013 7.2510615,6.1116249 7.2347005,6.089034 L 7.1923259,6.0306397 6.4766073,5.2870158 C 5.2838075,4.0481082 4.3898734,3.1063723 4.3625244,3.0602783 4.3520344,3.0425994 4.3420503,3.0112911 4.3408203,2.9905151 l -0.00207,-0.037724 0.025838,-0.086817 c 0.00932,-0.031796 0.017227,-0.063716 0.024288,-0.095601 1.168e-4,-5.273e-4 4.006e-4,-0.00102 5.168e-4,-0.00155 l 0.00517,-0.018087 0.00207,-0.018087 c 0.036465,-0.1881802 0.03387,-0.37658 -0.00517,-0.5565545 l -0.00568,-0.041341 -0.014469,-0.040308 C 4.3311674,1.9524913 4.2676103,1.8168081 4.1821737,1.6918864 L 4.1816569,1.6913696 C 4.1308968,1.6172311 4.072519,1.5471796 4.0064738,1.4815633 L 3.9537639,1.425236 3.9382609,1.4154175 3.9026042,1.381311 3.7744466,1.3012126 3.6468058,1.2216309 3.6044312,1.2050944 3.5517212,1.1839071 C 3.3712517,1.1129208 3.1396254,1.0705913 2.9455567,1.0686686 Z m 3.5909952,5.4213746 0.036174,0.013953 0.00672,0.00258 0.00207,0.00103 0.026355,0.012919 0.00362,0.00207 0.021704,0.03514 0.024288,0.039791 0.00207,0.034107 c 0.00105,0.018748 -0.00542,0.050278 -0.013953,0.07028 l -0.011369,0.027388 c -0.00465,0.00607 -0.00965,0.011418 -0.014986,0.016536 l -0.020154,0.013953 -0.019637,0.013436 c -1.459e-4,6.44e-5 -3.706e-4,-6.39e-5 -5.168e-4,0 -0.00855,0.00374 -0.017868,0.00663 -0.027388,0.00879 l -0.023254,0.00103 c -0.021443,0.0012 -0.050581,-8.309e-4 -0.065112,-0.00465 l -0.019637,-0.00517 -0.014469,-0.00878 -0.00103,-0.00103 h -5.167e-4 l -0.018603,-0.01757 -0.020154,-0.018604 -0.010852,-0.020671 -0.00723,-0.033073 -0.00879,-0.039274 5.168e-4,-0.00517 0.00103,-0.0093 0.011369,-0.029456 0.00982,-0.024805 0.012402,-0.01602 0.00568,-0.00723 0.017053,-0.014469 0.026872,-0.021704 0.033073,-0.00775 0.00207,-5.168e-4 0.011886,-0.00155 z" /><path
         id="path4510"
         style="display:inline;fill:#bdb7ab;fill-opacity:1;stroke-width:0.0111616"
         d="m 2.9310875,1.3322184 c 0.197489,-0.012066 0.3808365,0.076541 0.545903,0.1759247 0.291463,0.1431057 0.4805943,0.4411647 0.5275242,0.7580286 0.079246,0.3026075 0.00575,0.6375385 -0.137948,0.9090025 C 3.7657202,3.3656757 3.6125258,3.5172611 3.4199025,3.6112453 3.241344,3.7312192 3.0162608,3.7594997 2.8075824,3.7894489 2.2607005,3.8326653 1.72919,3.4143522 1.6545595,2.8684972 1.6222395,2.6706144 1.6249897,2.4526867 1.7006733,2.2665278 1.8701824,2.4404066 2.0054192,2.6502077 2.1764808,2.8200683 2.3494272,2.9680093 2.5888302,2.8671261 2.780434,2.8169034 2.9085178,2.7726981 3.0656858,2.7463096 3.1202095,2.6075847 3.1949026,2.4367072 3.3289666,2.2686394 3.3219992,2.078302 3.3144311,1.8291513 3.0747776,1.6962074 2.949533,1.5046469 2.9139308,1.4158832 2.6932781,1.3028762 2.9310875,1.3322184 Z m 0.4030761,2.4768514 c 0.2031677,0.07753 0.3065913,0.3196837 0.4681875,0.459409 0.2873515,0.3830151 0.6202363,0.7286166 0.9058878,1.1120769 0.4712538,0.55861 0.916075,1.1416138 1.3736834,1.7101646 0.078133,0.091227 0.2030443,0.089089 0.2975335,0.1455352 C 6.4074672,7.2854982 6.1895893,7.2164379 6.1345093,7.1644206 5.9441378,7.0460782 5.8442105,6.8285627 5.6898821,6.6707099 4.9290814,5.7364757 4.1793443,4.7890086 3.3997962,3.8721071 3.3742181,3.855491 3.3500189,3.8355048 3.3341636,3.8090698 Z" /><path
         id="path4478"
         style="display:inline;fill:#3e382d;fill-opacity:1;stroke-width:0.0111616"
         d="M 2.8432373,1.0965739 C 2.719278,1.1068855 2.569731,1.1629426 2.5615697,1.3070545 2.5579721,1.469061 2.7286665,1.559551 2.8058711,1.6872758 2.895303,1.8365279 3.1026935,1.9462691 3.0964668,2.1383593 3.0345808,2.2736413 2.9792726,2.4337795 2.8816442,2.5434464 2.7144324,2.5918025 2.5416836,2.6811264 2.365098,2.6556527 2.150248,2.4736644 2.0002302,2.22027 1.79834,2.0267451 1.6701809,1.9749977 1.5195498,2.0457489 1.4857073,2.1853815 1.298098,2.7072267 1.4424886,3.3370026 1.8709594,3.698592 2.1904725,3.9770718 2.6368433,4.080642 3.0530602,4.0136899 3.2462317,3.9731881 3.3394103,4.1625066 3.4447333,4.2823729 4.2655313,5.267238 5.0616455,6.2735735 5.8745796,7.2641521 6.1999756,7.5825865 6.7850953,7.5782724 7.0997187,7.2423908 7.3819293,6.9740605 7.4542672,6.5110055 7.2551038,6.1734437 7.0864945,5.9218926 6.8381063,5.7317066 6.6422947,5.5013362 5.8840848,4.7058991 5.1105195,3.9240373 4.3705587,3.1118078 4.2312823,2.9527872 4.4042226,2.7629466 4.387733,2.5840301 4.4526896,1.9958197 4.0711756,1.3990377 3.5166017,1.2014803 3.3047768,1.1160519 3.070038,1.0958036 2.8432373,1.0965739 Z m 0.081132,0.2113566 C 3.3693756,1.2971053 3.8250656,1.515871 4.0357888,1.919374 4.2112694,2.2171983 4.221145,2.5893629 4.101042,2.9098915 4.0698028,3.0934201 4.1764019,3.2513755 4.3082946,3.3664797 5.1915808,4.3139553 6.1001132,5.2375731 6.9911492,6.1775578 7.2518087,6.4506611 7.1925444,6.9280531 6.8934191,7.1453133 6.6993398,7.3063969 6.4134548,7.3345305 6.1876935,7.2250206 5.9515157,7.1138986 5.8432542,6.8504992 5.6647843,6.6740042 4.9170307,5.7519708 4.1735451,4.8253165 3.4127166,3.9144912 3.3130653,3.826897 3.1869397,3.78046 3.0535596,3.8054632 2.7210264,3.8523301 2.3667307,3.8066633 2.0920468,3.6012361 1.6661146,3.3118343 1.5169775,2.7263942 1.6810405,2.2505098 1.823813,2.2984041 1.9241047,2.5230523 2.0499712,2.6402387 2.1398313,2.7586008 2.2480952,2.8918402 2.4129583,2.8779518 2.63153,2.8651362 2.8554555,2.7906167 3.047876,2.6866684 3.1521638,2.494114 3.3060819,2.2926497 3.3010859,2.0686025 3.2973798,1.8614915 3.1032828,1.7454062 2.9955978,1.5889017 2.9481789,1.4823697 2.6094089,1.2722801 2.9243693,1.3079305 Z M 6.4967611,6.2461304 C 6.3625284,6.2628208 6.2312836,6.3283135 6.1799824,6.4590322 6.0516882,6.6272191 6.1386129,6.8945871 6.3271995,6.9769393 6.5527999,7.1216716 6.896668,6.9323615 6.8962054,6.6610867 6.9336514,6.4334624 6.7143236,6.2432627 6.4967611,6.2461304 Z m 0.00207,0.2185913 c 0.1589878,-0.023846 0.2517374,0.1860035 0.142621,0.298677 -0.1132154,0.118591 -0.3341129,0.012911 -0.3028713,-0.1492658 0.00346,-0.079703 0.084117,-0.1420203 0.1602503,-0.1494112 z" /><path
         id="path4504"
         style="display:inline;fill:#aea89c;fill-opacity:1;stroke:none;stroke-width:0.0111616;stroke-opacity:1"
         d="m 4.0018233,3.5398356 c -0.1080107,0.043036 -0.2058209,0.1249818 -0.2681865,0.2206747 -0.036971,0.063808 -0.012018,0.1445326 0.041131,0.1913184 0.4339407,0.513972 0.8684782,1.0277011 1.3076371,1.5371382 0.2327556,0.2702262 0.459779,0.5450606 0.6841681,0.8222766 0.055315,0.044387 0.1377185,0.072374 0.1988616,0.023706 0.075099,-0.051149 0.1147905,-0.146571 0.202888,-0.1828188 C 6.2518396,6.115709 6.3035825,6.0372194 6.3015552,5.9451843 6.2214987,5.7961907 6.0786906,5.6856025 5.9722659,5.5542626 5.4964667,5.0285396 5.0097433,4.5127663 4.5319935,3.9889797 4.3797435,3.8474599 4.2558206,3.6755263 4.0953572,3.5439697 c -0.031178,-0.00137 -0.062356,-0.00275 -0.093534,-0.00413 z" /><path
         id="path4522"
         style="display:inline;fill:#e3ddd2;fill-opacity:1;stroke-width:0.0111616"
         d="M 2.841687,1.3368693 C 2.9838611,1.4437225 3.0867106,1.6227145 3.2143489,1.755077 3.3747499,1.9038682 3.4601483,2.1475701 3.3610366,2.3528265 3.2698479,2.5198436 3.2298867,2.7545757 3.0361588,2.8336619 2.8312239,2.9037142 2.594145,3.0018785 2.3822847,2.9098991 2.6124828,2.8858704 2.8444307,2.8240742 3.0494287,2.7161003 3.167936,2.5757998 3.2389336,2.3884008 3.312351,2.2177462 3.3591651,2.0591451 3.3016036,1.8774678 3.1793359,1.7663328 3.0792694,1.6248887 2.8964584,1.4741629 2.841687,1.3368693 Z M 1.7027385,2.2742798 c 0.1466778,0.14468 -0.026244,0.3847143 0.048594,0.5679927 0.038558,0.3175229 0.217731,0.6136181 0.4728193,0.8055658 C 1.7283847,3.4116082 1.526657,2.7752897 1.7027385,2.2742798 Z" /></g></g></svg>
