<?xml version="1.0" encoding="UTF-8" standalone="no"?>
<!-- Created with Inkscape (http://www.inkscape.org/) -->

<svg
   width="32"
   height="32"
   viewBox="0 0 8.4666667 8.4666667"
   version="1.1"
   id="svg5"
   xml:space="preserve"
   xmlns="http://www.w3.org/2000/svg"
   xmlns:svg="http://www.w3.org/2000/svg"><defs
     id="defs2" /><g
     id="layer3"
     style="display:inline"><g
       id="g1898"
       style="display:inline;fill:#dea1a1;stroke:#000000;stroke-width:0.5;stroke-linecap:round;stroke-linejoin:round;stroke-dasharray:none;stroke-opacity:1"><path
         id="path1910"
         style="fill:#d9cbcb;fill-opacity:1;fill-rule:evenodd;stroke:#000000;stroke-width:0.132292;stroke-linecap:butt;stroke-linejoin:round;stroke-dasharray:none;stroke-opacity:1"
         d="m 3.7965701,1.0365947 4.1167772,0.485964 v 4.626346 L 3.7965701,4.9329661 Z"
         points="7.9133473,1.5225587 7.9133473,6.1489047 3.7965701,4.9329661 3.7965701,1.0365947 " /><path
         id="path1900"
         style="fill:#8f8080;fill-opacity:1;fill-rule:evenodd;stroke:#000000;stroke-width:0.132292;stroke-linecap:butt;stroke-linejoin:round;stroke-dasharray:none;stroke-opacity:1"
         d="M 0.5420375,1.4691805 V 6.0413693 L 3.7965701,4.9329661 V 1.0365947 Z"
         points="0.5420375,6.0413693 3.7965701,4.9329661 3.7965701,1.0365947 0.5420375,1.4691805 " /><path
         id="path1908"
         style="fill:#800080;fill-opacity:1;fill-rule:evenodd;stroke:none;stroke-width:1px;stroke-linecap:butt;stroke-linejoin:round;stroke-opacity:1"
         d="M 0.5420375,6.0413693 4.7955964,7.7679902 7.9133473,6.1489047 3.7965701,4.9329661 Z"
         points="4.7955964,7.7679902 7.9133473,6.1489047 3.7965701,4.9329661 0.5420375,6.0413693 " /><path
         id="path1902"
         style="fill:none;fill-rule:evenodd;stroke:#000000;stroke-width:0.198437;stroke-linecap:butt;stroke-linejoin:round;stroke-dasharray:none;stroke-opacity:1"
         d="M 0.5420375,1.4691805 4.7955964,2.1568815 7.9133473,1.5225587 3.7965701,1.0365947 Z"
         points="4.7955964,2.1568815 7.9133473,1.5225587 3.7965701,1.0365947 0.5420375,1.4691805 " /><path
         id="path1906"
         style="fill:none;fill-rule:evenodd;stroke:#000000;stroke-width:0.264583;stroke-linecap:butt;stroke-linejoin:round;stroke-dasharray:none;stroke-opacity:1"
         d="M 4.7955964,2.1568815 V 7.7679902 L 7.9133473,6.1489047 v -4.626346 z"
         points="4.7955964,7.7679902 7.9133473,6.1489047 7.9133473,1.5225587 4.7955964,2.1568815 " /><path
         id="path1904"
         style="fill:none;fill-opacity:0.542636;fill-rule:evenodd;stroke:#000000;stroke-width:0.264583;stroke-linecap:butt;stroke-linejoin:round;stroke-dasharray:none;stroke-opacity:1"
         d="m 0.5420375,1.4691805 4.2535589,0.687701 V 7.7679902 L 0.5420375,6.0413693 Z"
         points="4.7955964,2.1568815 4.7955964,7.7679902 0.5420375,6.0413693 0.5420375,1.4691805 " /></g><path
       id="path7383"
       style="fill:none;fill-rule:evenodd;stroke:#000000;stroke-width:0.0529167;stroke-linejoin:round;stroke-dasharray:none;stroke-opacity:1"
       d="M 6.659134,5.7348784 3.5154088,7.1926489 M 4.5484836,5.1099927 1.5316924,6.3083062 M 1.54636,5.6645336 5.9830012,7.3006898 M 3.2578533,5.0763968 7.3765538,6.4438048 M 2.4590743,6.7930076 5.5373128,5.3969951 M 6.6837068,6.8624206 2.4253356,5.3616799" /></g></svg>
